<svg id="fc052609-a601-44bf-837c-a5b779dbbda2" data-name="Layer 1" xmlns="http://www.w3.org/2000/svg" xmlns:xlink="http://www.w3.org/1999/xlink" viewBox="0 0 595.28 450">
  <defs>
    <linearGradient id="a695e7fa-bc78-4440-a5e1-e4c15bb95861" x1="190.03" y1="192.15" x2="190.03" y2="191.4" gradientUnits="userSpaceOnUse">
      <stop offset="0" stop-color="#4b6c73"></stop>
      <stop offset="0.43" stop-color="#2bb3a8"></stop>
      <stop offset="0.65" stop-color="#aed8a6"></stop>
      <stop offset="0.74" stop-color="#d2e5a8"></stop>
      <stop offset="1" stop-color="#e1c17a"></stop>
    </linearGradient>
    <linearGradient id="a655c7dd-0aa4-49a4-8a8b-992fd8ea697f" x1="125.09" y1="435.98" x2="125.09" y2="184.75" xlink:href="#a695e7fa-bc78-4440-a5e1-e4c15bb95861"></linearGradient>
    <linearGradient id="ea719285-50ea-4d47-850b-c408df7469ec" x1="391.42" y1="317.99" x2="391.42" y2="66.68" gradientUnits="userSpaceOnUse">
      <stop offset="0" stop-color="#2bb3a8"></stop>
      <stop offset="0.35" stop-color="#aed8a6"></stop>
      <stop offset="0.48" stop-color="#d2e5a8"></stop>
      <stop offset="0.64" stop-color="#e1c17a"></stop>
      <stop offset="1" stop-color="#ed6023"></stop>
    </linearGradient>
  </defs>
  <g>
    <g>
      <path d="M176.66,187.19a85.15,85.15,0,0,0-6.25,5.82c-.72.72-1.49,1.55-2.26,2.32a19.79,19.79,0,0,0-2.6,3.51,61.73,61.73,0,0,0-4.43,10.21c-3.07,8.35-4.62,16.78-7.27,25.28a69.71,69.71,0,0,0-2.6,29.85c1.25,10.41,1.65,21.42,6.94,30.29,1.59,2.63,4.91,6.23,4.52,9.59-.24,2.21-2.79,4.58-4.81,6-6.59,4.69-14.57,5.41-21.88,8.19s-15.15,7.07-19.19,14.75a23.59,23.59,0,0,0-2.55,8.14C100.42,322.36,87.53,302.72,71,286.68c-17.32-16.8-39.68-29.38-62.91-28.45,1.63-1.45,3.17-3,4.81-4.44,0-.1.19-.2.33-.31,13-11.44,27.8-16.39,43.92-20.36,2.93-.72,5.82-1.7,8.8-1.8C70.12,231,74,229.41,78,228.84c4.62-.72,9.48-.36,14.19-1.13a88.09,88.09,0,0,0,17.84-4.8c5.73-2.21,9.53-5.56,14.67-8.81a7.91,7.91,0,0,0,.87-.93c2-2.32,4.14-4.59,6.16-7a28.86,28.86,0,0,1,10.48-8c3.85-1.75,7.6-4.13,11.64-5.16,5.63-1.54,11.35-2.83,16.93-4.59.68-.2,1.35-.25,2.07-.41A30.21,30.21,0,0,0,176.66,187.19Z" fill="#eaeaea"></path>
      <path d="M31.72,223.56a2.91,2.91,0,0,1-2.15,2,19.41,19.41,0,0,1-4.14.78,19.65,19.65,0,0,1-3,.22,10.76,10.76,0,0,1-2.72-.3A4.16,4.16,0,0,1,19,226a5.34,5.34,0,0,1-1.06-.37,4.94,4.94,0,0,1-1.59-1.11,4.14,4.14,0,0,1-1-1.7,6.69,6.69,0,0,1,0-3.25v0a12.44,12.44,0,0,1,.85-2.36,1.58,1.58,0,0,1,.21-.41c.28-.63.6-1.26.92-1.88.14-.26.28-.56.43-.82s.14-.29.21-.48c.17-.44.35-.85.53-1.29.35-.85.67-1.74,1.06-2.59.14-.29.25-.63.39-1s.14-.48.25-.74.1-.29.14-.44a12,12,0,0,1,.81-1.74,2.18,2.18,0,0,1,.21-.26,2,2,0,0,1,.21-.26c0-.07.08-.11.11-.11a2.53,2.53,0,0,1,.32-.33h0c1.1-.81,2.2-.37,3.19.81a3.73,3.73,0,0,1,.35.41,17.77,17.77,0,0,1,1.56,2.62c.21.41.39.82.6,1.26.07.18.18.41.28.63l.53,1.33c.78,2,1.42,4.06,1.91,5.62.18.51.32,1,.43,1.4s.24.7.32.92c.14.45.28.89.38,1.33A4.61,4.61,0,0,1,31.72,223.56Z" fill="#eaeaea"></path>
      <path d="M123.27,196.2c0,.08,0,.19,0,.27a2.32,2.32,0,0,1-.09.94,4.24,4.24,0,0,1-.32.64,1.15,1.15,0,0,1-.22.3,1.34,1.34,0,0,1-.23.26,5.13,5.13,0,0,1-1,.91,1.07,1.07,0,0,1-.45.26,6.08,6.08,0,0,1-2.07.83h-.09a5,5,0,0,1-1.26.15,5.49,5.49,0,0,1-.81,0,7.87,7.87,0,0,1-5.32-2.56,2.88,2.88,0,0,1-.41-.71,2.56,2.56,0,0,1,0-1.55,13.48,13.48,0,0,1,.36-1.35c.18-.53.36-1.09.49-1.58.68-2.34,1.45-4.59,2.26-6.85v0c.49-1.17.94-2.33,1.48-3.5a3.66,3.66,0,0,1,.73-1.39.86.86,0,0,1,.85-.19,1,1,0,0,1,.36.19s0,0,0,0a1.85,1.85,0,0,1,.54.72,3.07,3.07,0,0,1,.4.94c.18.49.32.94.41,1.24.41,1.06.86,2.11,1.26,3.2.72,1.77,1.49,3.61,2.21,5.42a4.73,4.73,0,0,1,.32.87,7.78,7.78,0,0,1,.49,2.19C123.23,195.93,123.27,196.07,123.27,196.2Z" fill="#eaeaea"></path>
      <path d="M72.16,214.59a5.88,5.88,0,0,1-2.5,1.33,3.61,3.61,0,0,1-.88.24,1.17,1.17,0,0,1-.39,0,11.73,11.73,0,0,1-1.83.12,13.43,13.43,0,0,1-2.78-.16,1.23,1.23,0,0,1-.4,0,2.2,2.2,0,0,1-.55-.08,5.68,5.68,0,0,1-.88-.2,2.66,2.66,0,0,1-.55-.16,5.17,5.17,0,0,1-1.63-.93,2.14,2.14,0,0,1-.64-1.54,1.81,1.81,0,0,1,.12-.64c.16-.61.36-1.21.48-1.82,1.07-4.2,1.67-8.56,4.17-12.23a0,0,0,0,1,0,0,4.14,4.14,0,0,1,.36-.53,2.61,2.61,0,0,1,.43-.56l.28-.29c.44-.32.87-.52,1.35-.2h0a1.12,1.12,0,0,1,.32.33,8.17,8.17,0,0,1,1,1.89,5,5,0,0,0,.28.73,5,5,0,0,1,.28.73,4.69,4.69,0,0,0,.2.44s0,.12,0,.16,0,.12.07.16a3,3,0,0,0,.12.33c.64,1.17,1.23,2.38,1.79,3.59s1.19,2.42,1.79,3.59C73.31,210.91,74.18,212.73,72.16,214.59Z" fill="#eaeaea"></path>
      <g>
        <path d="M191.74,191.4c-1.3.31-2.57.55-3.42.75A17,17,0,0,1,191.74,191.4Z" fill="#eaeaea"></path>
        <path d="M191.74,191.4a17,17,0,0,0-3.42.75c.85-.2,2.12-.44,3.42-.75Z" fill="#eaeaea"></path>
      </g>
      <path d="M423.48,273.47c0,.08,0,.17-.06.27-1.09,5.21-3.19,7.66-6.82,10.91l-.3.26c-.55.49-1.1,1-1.65,1.49l-.53.46-1.43,1.27c-1.07.93-2.15,1.84-3.24,2.72l-.78.6c-.36.29-.74.57-1.12.85s-1,.71-1.49,1.05l-.13.08c-.5.33-1,.66-1.53,1,0,.08-.1.08-.12.12-6.51,3.8-13.2,5-20.43,6.07-1.31.2-2.68.42-4.06.62l-2.82.4-2.68.35-.34,0c-1.83.23-3.69.43-5.58.58l-.23,0c-1.42.1-2.85.19-4.27.25-1,0-2,0-3.05,0a63.78,63.78,0,0,1-7.35-.4c-1.6-.2-3.18-.46-4.73-.8-.78-.18-1.54-.38-2.31-.59A33.25,33.25,0,0,1,342,299.5c-4-1.79-6.52-4.88-9.69-8.76-5-6-11.13-13.56-24.15-16.35q-2.75-.57-5.54-1c-.74-.11-1.49-.21-2.24-.3s-1.74-.21-2.61-.29-1.77-.16-2.68-.21l-.6,0c-.87-.07-1.75-.11-2.61-.14h-.13c-1.6-.05-3.22-.07-4.83-.05-.65,0-1.29,0-1.93,0l-5.31-10.13-.44-.82-3.83-7.3c-2.79-5.26-5.64-10.66-9.29-15.26a26.5,26.5,0,0,0-6.3-6.25q-5.64-3.52-11.1-7.38l-.87-.61-3-2.2c-.92-.68-1.85-1.38-2.76-2.08l-.05,0-1.28-1-2.59-2-.69-.55-2.61-2.15-.07-.07q-2.1-1.74-4.14-3.53a.34.34,0,0,0-.22-.2,11.77,11.77,0,0,0,1.78-1.39c.64-.53,1.29-1,2-1.5a37.21,37.21,0,0,1,4.82-3c6.24-3.46,12.84-5.09,19.72-6,2.34,1.79,4.72,3.56,7.07,5.3,10.42,7.84,20.91,15.66,31.34,23.51a40.49,40.49,0,0,0,9.22,5.66c5.37,4.43,16.57,4.81,23.57,5.59,6.9,2.78,14.11,5.08,21.36,3.76,4.4-.88,8.55-3.06,12.76-4.69,14.45-5.55,30.09-4.5,45.4-2.43.9.14,1.82.27,2.72.39v0a31,31,0,0,0,2,18.95,49.39,49.39,0,0,0,4.59,8.43c.22.31.47.65.74,1,0,0,0,0,0,.06,1.32,1.63,3.15,3.54,3.85,5.44a4.24,4.24,0,0,1,.27,1.06A8,8,0,0,1,423.48,273.47Z" fill="#eaeaea"></path>
      <path d="M479.4,105.83a9.24,9.24,0,0,0-1.75,2.71c-.91,1.91-1.62,4.12-2.35,5.85-2.68,6.25-5.73,12.36-8.17,18.72a.38.38,0,0,1-.1.2c-1.1,3-2.25,5.91-3.33,8.86a4.3,4.3,0,0,0-.16.41c-2.47,6.6-4.91,13.22-7.51,19.78-.64,1.63-1.26,3.22-1.93,4.82s-1.33,3.2-2,4.75-1.25,2.89-1.91,4.36-1.36,3-2.06,4.48-1.36,2.85-2.06,4.28l-.09.2c-.74,1.46-1.47,2.93-2.26,4.35s-1.54,2.9-2.34,4.32c-.44.81-.92,1.59-1.4,2.38-1.17,2-2.41,4-3.7,6a96.72,96.72,0,0,1-10.25,13c-1.74,1.88-3.57,3.73-5.31,5.66a38.1,38.1,0,0,0-7,10,26.18,26.18,0,0,0-1.62,5c-.9-.12-1.82-.25-2.72-.39-15.31-2.07-30.95-3.12-45.4,2.43-4.21,1.63-8.36,3.81-12.76,4.69-7.25,1.32-14.46-1-21.36-3.76a26.24,26.24,0,0,1,4.37.74c7.12,2.17,10.48-7.87,5-11.35a14.26,14.26,0,0,0,2.85-2.41c3.56-3.91,5.45-10.17,2.42-15-5.32-8.44-18.48-3.92-25.87-1.47a6.18,6.18,0,0,0-4.29,6.78c-5,.68-9.61,2.77-10.8,8-1,4.15.3,7,2.75,9a40.49,40.49,0,0,1-9.22-5.66c-10.43-7.85-20.92-15.67-31.34-23.51-2.35-1.74-4.73-3.51-7.07-5.3,4.37-.58,8.84-.82,13.41-1.09,9.29-.51,18-2.61,25.92-7.89,4.09-2.68,9.29-4.14,13.76-5.93,5.07-2,10-4,15.11-6,4.22-1.15,8.88-4.69,12.78-6.7,4.18-2.24,8.38-4.44,12.62-6.65,12.3-6.56,24.47-13.25,37.31-18.56,13.84-5.77,28.31-9.74,42.19-15.59q2.71-1.17,5.38-2.36,5.24-2.35,10.42-4.87c1.16-.56,2.33-1.13,3.48-1.72l1.73-.87c.1,0,.22-.1.32-.16,1.67-.84,3.32-1.71,5-2.58s3.49-1.88,5.23-2.83l.33-.19q3.57-2,7.09-4c1-.59,2-1.2,3-1.81a11.42,11.42,0,0,1,1.95-.8l.08,0a11.64,11.64,0,0,0,1.25-.58A9.23,9.23,0,0,0,479.4,105.83Z" fill="#eaeaea"></path>
      <polygon points="166.12 198.15 166.07 198.38 165.87 198.22 166.12 198.15" fill="#eaeaea"></polygon>
      <polygon points="166.12 198.15 166.07 198.38 165.87 198.22 166.12 198.15" fill="#eaeaea"></polygon>
      <path d="M234.68,205.21a15.28,15.28,0,0,1,4.29-.31" fill="#eaeaea"></path>
      <path d="M500.6,74.39a1.93,1.93,0,0,1-.35-.4,89.1,89.1,0,0,0-5.64-7.37c-.29-.37-.54-.71-.83-1.05-2.21-2.65-1.93-4.59-1.93-8.06a15.89,15.89,0,0,0-.28-3.19c-.7-2.45-3-3.42-4.44-5.23-1.23-1.43-.7-3-1-4.86-.35-1.49-.79-3.23-1.87-4.24-.35-.24-.6-.48-.91-.68a4.73,4.73,0,0,0-4.51-.18c-1,.48-2.37,1.91-3.2.66a2.47,2.47,0,0,1-.22-2.35,19.94,19.94,0,0,0,.92-2.17c.85-2.53-.7-5.34-2.25-7.45-1.11-1.77-3-4.55-5-5.26a2.59,2.59,0,0,0-1.2-.17,12.59,12.59,0,0,0-6.06,1.35c-.54.32-1,.52-1.49.78-.66.38-1.27.75-1.93,1.09a3.25,3.25,0,0,1-1.21.44.89.89,0,0,1-.81-.54,2.26,2.26,0,0,1-.23-2.27c.25-.75.67-1.47.92-2.25.83-2.58-.69-5.26-2.25-7.5a14.71,14.71,0,0,0-7.11-5.85c-3.45-1.22-6.52.17-10-.24a8.2,8.2,0,0,1-5.55-2.91c-.69-1-1.29-2.35-2.49-2.49A2,2,0,0,0,428,3.26a3.72,3.72,0,0,0-.06,2.28A7.27,7.27,0,0,0,432,10.12a14.19,14.19,0,0,0,5.9.88,60,60,0,0,1,6-.24c2.6,0,1.81,1.87,1.27,3.84-1.27,4.9-4,9-6.08,13.42-1.43,3.09.34,5.2,2.28,7.51a8.71,8.71,0,0,0,.72,1.26,22.67,22.67,0,0,0,5.15,4c3.67,2.28,7.47,1.74,11.15.14-1.58,2.75-.86,5.26,2.26,8.87a8.5,8.5,0,0,0,.62,1.33c1,.84,2.1,1.79,3.14,2.57a12,12,0,0,0,2.06,1.47,10.32,10.32,0,0,0,7.19,1.25c1-.23,1.94-.44,2.87-.75A31.49,31.49,0,0,0,481.83,53c.23-.1.45-.22.67-.34,1.39-.62,2.66-.32,4.09.78a4.4,4.4,0,0,1,1.08,1.19,6.14,6.14,0,0,1,.63,2.77c0,1.16,0,2.43,0,3.68a7.37,7.37,0,0,1-.12,1.6,21.92,21.92,0,0,1-2.76,4.89,21.92,21.92,0,0,1-3.87,4.34,11.89,11.89,0,0,0-1.52,1.5,4.45,4.45,0,0,0-1.17,3.78,5.17,5.17,0,0,0,.38,1.11,6.53,6.53,0,0,0,.67,1c.64.78,1.59,1.53,1.79,2.6a27.81,27.81,0,0,1,0,3.42,40.22,40.22,0,0,1-.77,9.61,14,14,0,0,1-6.7,9.76c-1,.61-2.15,1.21-3.17,1.93-1.39.92-2.59,1.93-4,2.82-.83.48-1.66.92-2.45,1.4-3.86,2-7.75,4-11.68,5.87-7.84,3.81-15.73,7.45-23.72,10.84-6.5,2.82-13,5.57-19.39,8.59s-13.76,4.8-20.45,7.37c-6.92,2.79-13.8,5.65-20.58,8.64-3.51,1.59-7,3.23-10.49,4.88-2.41,1.23-7.34,3-9.42.62s-.69-6.25,1.6-7.75c1.67-1.11,3.93-1,5.57-2.31a5.76,5.76,0,0,0,1.81-5,18.88,18.88,0,0,0-1.39-5.29c-1-2.73-3.84-14.68-7.26-14.24a5,5,0,0,0-2.92,2.27c-2.5,3.31-4.43,9.28-5.55,11.45-1,2-3.81,8.5-2.09,10.5,1.49,1.7,3.46.37,5,1.47,1.39,1,2,3,2.26,4.62a18.54,18.54,0,0,1-1.43,10.79c-1.5,2.89-4.16,4.6-6.95,5.79s-5.38,2.65-8.18,4.1c-6.62,3.37-13.87,6.19-21.45,6a4.37,4.37,0,0,1-3.1-.88c-.83-.68-2-2.31-1-3.33.56-.57,2.22-.44,3-1,2-1.56,2-4.18,1.61-6.49-.69-3.63-2.56-7.64-3.33-9.74-.66-1.67-2.87-10.37-5.26-5.85-.66,1.39-1.42,2.79-2.16,4.14-1.6,3.1-3.26,6.09-4.84,9.18a10,10,0,0,0-1.65,5.2c.15,1.87,1.65,3,3.14,3.7,1,.41,2.22.38,3.23.85,2.8,1.26,2,5,2.19,7.57.44,6.39-6,7.27-10.65,8.23a112.74,112.74,0,0,1-14.49,2c-6.65.6-13.21,1-19.67,2.51h0c-.57.1-1.15.27-1.71.4a114.24,114.24,0,0,0-15,5c-3.79,1.48-9.14,5.25-13.25,3.1a15.44,15.44,0,0,1-4.2-3c-2.22-2.35-4.47-4.66-6.75-7a21.82,21.82,0,0,0-5.12-4.11c-2.16-1.25-4.35-2.46-6.59-3.54a37.53,37.53,0,0,0-17.14-3.25,53.3,53.3,0,0,0-8.72.91c-3.07.57-6.19.61-9.25,1.25a127,127,0,0,0-13.69,3.7c-9.07,3-18,7.42-24.75,14.72-1.14,1.35-2.32,2.58-3.53,3.76s-2.62,2.59-4.47,2.69a2.45,2.45,0,0,1-2.31-.92,5.1,5.1,0,0,1-.48-2.17,23.48,23.48,0,0,0-.1-2.65,3.43,3.43,0,0,1,.2-1.49c.47-.92,1.4-.55,2.21-.55a5,5,0,0,0,3-1.08,6.48,6.48,0,0,0,1.93-5.64,8.3,8.3,0,0,0-.1-1,22.66,22.66,0,0,0-1.68-5c-.81-1.81-1.48-3.71-2.21-5.58-.93-2.17-1.74-4.41-2.67-6.66-.28-.7-.67-1.52-1.39-1.6s-1.4.9-1.71,1.77c-1.56,4.11-3,8.19-4.63,12.33-.76,2-1.48,4.12-2.25,6.19-.69,1.69-1.21,3.33.6,4.48a6.15,6.15,0,0,0,2.41.62c1.27.2,2.79.4,3.33,1.89.66,2.11-.25,4.7,0,6.91a45.18,45.18,0,0,1-.06,5.83c-.1,2.49-3.46,3.81-5.24,4.52a59.82,59.82,0,0,1-12,3.17,143.6,143.6,0,0,1-23.93,2.61,5.63,5.63,0,0,1-1.37-.1,2.84,2.84,0,0,1-1.49-1.4,4.23,4.23,0,0,1-.63-1.53c-.1-.26-.1-1.08-.19-1.18-.39-.61-.51-1.59-.73-3.46A40.23,40.23,0,0,0,73,217.29a5.29,5.29,0,0,0,2.31-2.61A7.69,7.69,0,0,0,75,210.2a19.3,19.3,0,0,0-2.89-5.28c-1-1.55-1.87-3.28-2.79-5a41.73,41.73,0,0,0-2.63-5,2.28,2.28,0,0,0-1.13-1.08,2.08,2.08,0,0,0-1.72.24,6.42,6.42,0,0,0-1.15,1.36,7.41,7.41,0,0,0-.95,2.68c-1.17,4.59-2.31,9.1-3.48,13.69a7.5,7.5,0,0,0-.32,3c.32,2.17,2.63,2.88,4.21,3.39,1.75.47,3.27.37,4.26,2.28a7.14,7.14,0,0,1,0,6.28,3.58,3.58,0,0,0,.44.51A15.33,15.33,0,0,1,63,228.94c-3.8.92-7.71,1.77-11.6,2.62-6.56,1.6-13.13,3.43-19.27,6.66-1.14.57-2.32.89-3.84,1.56A10.89,10.89,0,0,1,27,237.14a32.61,32.61,0,0,1-.43-4.74c0-2.67.25-3.05,2.85-3.86,2.24-.78,5.77-1.16,5.67-4.46,0-3.12-2.54-6.41-3.84-9.16l-5.16-10.67a12.71,12.71,0,0,0-1.72-2.79,3.47,3.47,0,0,0-2.85-1.09c-2.35.58-2.89,4.38-3.74,6.35-1.29,3.2-2.56,6.49-3.77,9.79l-2,5.88c-.61,1.59-1.66,3.84-.71,5.47a3.24,3.24,0,0,0,1.85,1.39c2.15.58,4.72,0,6.84,0a17.64,17.64,0,0,1,2.47.3c1.46,3.57,1,7.17,1.46,10.88-4.76,4.08-9.63,8-14.32,12.2a5.21,5.21,0,0,0-.64.44c-1.42,1.29-2.95,2.65-4.37,3.86,0,1.33-3.66,2.39-4.45,3.82a1.06,1.06,0,0,0,0,.94c.56,1.59,3.64-.26,4.47-.78a22.86,22.86,0,0,0,3.49-2.66l0,0c1.22-1.05,2.4-2.2,3.59-3.33.39-.38.79-.75,1.19-1.12a2.11,2.11,0,0,1,.36-.31,6.65,6.65,0,0,1,.65-.54c.4-.37.8-.69,1.2-1,.62-.5,1.23-1,1.86-1.48h0c.63-.48,1.26-.94,1.89-1.39a79.58,79.58,0,0,1,9.79-6c8.87-4.58,18.45-7.43,28.53-9.91l1.63-.46.56-.16.5-.12.31-.08a29.7,29.7,0,0,1,5.78-1l.79-.08h0c.26,0,.52-.05.75-.09s.48-.06.72-.11a.13.13,0,0,0,.09,0l1.5-.3.77-.17c.63-.15,1.24-.32,1.87-.48A46.17,46.17,0,0,1,77.26,229a6,6,0,0,1,.74-.11c.49-.08,1-.14,1.47-.19l1.17-.11c.88-.07,1.77-.12,2.65-.18h0c1.14,0,2.35-.1,3.55-.12a44.38,44.38,0,0,0,5.36-.52c.76-.11,1.5-.25,2.25-.39,1.7-.31,3.39-.69,5.07-1.12,1-.22,2-.48,2.92-.77,2.57-.72,5.12-1.57,7.6-2.54.35-.14.71-.26,1-.41a36.81,36.81,0,0,0,6.51-3.61c1.74-1.11,3.42-2.37,5.23-3.56.63-.4,1.27-.82,1.87-1.22h0c.15-.15.3-.29.43-.44s.29-.31.43-.48c.55-.64,1.12-1.28,1.68-1.9,1.5-1.71,3-3.39,4.47-5.13h0a31,31,0,0,1,4.84-4.62,27.72,27.72,0,0,1,5.66-3.36l1.43-.67,1.45-.73c1-.47,1.92-1,2.89-1.41a54.92,54.92,0,0,1,5.26-2.18,133.28,133.28,0,0,1,14.71-4,15.47,15.47,0,0,1,2.36-.57,1.13,1.13,0,0,1,.84.15c1.72,1.35-1.66,4.08-2.32,5a30.5,30.5,0,0,0-1.94,3.1c-.29.52-.57,1-.84,1.57h0c-.54,1.06-1.08,2.14-1.62,3.18-.92,1.72-1.74,3.49-2.51,5.29-.93,2.12-1.81,4.28-2.72,6.4-5.81,13.62-9.89,28.43-10.24,43.48a75.61,75.61,0,0,0,2.54,22,66,66,0,0,0,3.9,10.53c.34.72.75,1.42,1.18,2.15a39.88,39.88,0,0,1,2.46,4.36,9.52,9.52,0,0,1,.85,3c.23,2.31.44,4.7-.35,6.83-1.49,4.09-5,6.52-9.07,8.19-4.89,2-10.56,3-14.48,4.45-.46.18-.93.35-1.39.54-.93.38-1.86.78-2.79,1.21a41,41,0,0,0-7.92,4.72c-.81.64-1.59,1.32-2.33,2a25.22,25.22,0,0,0-4,4.85c-.27.46-.53.93-.79,1.4a24.33,24.33,0,0,0-2.17,5.89,1.46,1.46,0,0,0,0,.2c-.15.68-.26,1.35-.35,2v0a29.23,29.23,0,0,0,1.49,12.22,42.6,42.6,0,0,0,3.14,7.17c2.66,4.86,5.48,9.64,3.58,15.63-1.74,5.4-6.56,7.95-10.81,10.53C91.53,399,70.16,408.64,48.93,418.65l4.45,0c1.31-.47,2.63-.91,3.94-1.36a154.31,154.31,0,0,0,17-7.48c10.3-5,20.36-10.57,30.34-16.3,5-2.85,9.91-5.78,14.9-8.67,3-1.77,11.69-4.89,10.2-10.09s-6.18-10.39-8.62-15.35c-2.85-5.81-4.91-12.37-4.16-18.86,1.31-11.31,13-18.71,22.7-20.38a45.62,45.62,0,0,0,18.45-7.75c2.13-1.49,5.93-3.77,6.91-6.41,1.27-3.37-1.5-6.36-3-8.9a79.82,79.82,0,0,1-8.43-20.15,84.51,84.51,0,0,1-2.12-10.71c-.12-1-.24-2-.34-3a82.74,82.74,0,0,1-.07-14.93A62.21,62.21,0,0,1,153,237.36c.15-.58.31-1.15.47-1.73s.42-1.38.63-2.06c1.41-4.47,3.18-8.81,5.06-13.29,1.43-3.37,2.89-6.79,4.19-10.3l.29-.81a53.5,53.5,0,0,1,3.93-9c2.54-4.28,6.84-7.84,10.46-11.14.21-.19.42-.39.64-.57a10.16,10.16,0,0,1,1-.75h0a4,4,0,0,1,1.13-.53,23.16,23.16,0,0,1,3.65-.39,21.31,21.31,0,0,1,7.07.44c1.12.27,3.09.74,3.79,1.81a.82.82,0,0,1-.25,1.24,10.29,10.29,0,0,1-3.59,1.11,17.12,17.12,0,0,0-4.11,1,11.38,11.38,0,0,0-2.61,1.68c-.26.21-.54.43-.79.67s-.6.54-.89.82-.56.59-.84.9c-.53.61-1,1.26-1.51,1.93a36.39,36.39,0,0,0-2.53,4.27,127.17,127.17,0,0,0-6,14.81c-1,2.65-1.94,5.41-3,8l-.79,2c-3,7.27-5.77,14.14-6.67,22.08-.12,1.16-.25,2.41-.27,3.64a61.23,61.23,0,0,0,5.82,29.56c1,2.07,2.14,4,3.2,5.91,3.47,6,6.44,11.25,5.24,18.28-1.39,8.39-8.44,13.85-12.52,16.4-4.82,3-10,4.48-15.47,6-1.61.48-3.27,1-5,1.53-4.87,1.64-13.08,4.35-14.93,10.67-1.64,5.37,1.85,10.8,4.63,15.18.42.65.82,1.26,1.21,1.91,3,4.9,6.53,10.43,7,16.55a.86.86,0,0,1,.06.23,7.15,7.15,0,0,1,.1,1.22c.16,4.46-1.39,8.64-4,10.61-2.79,2.1-5.86,4-8.85,5.87l-2.79,1.74c-9.38,5.83-17.27,10.49-24.79,14.63-6.18,3.39-12.53,6.66-18.94,9.83l4.15.18c3.23-1.38,5.9-2.49,6.65-2.86,7.35-3.61,14.42-7.62,21.5-11.8s14.28-8.77,21.2-13.52c3.07-2.1,5.57-3.33,6.84-7a26.53,26.53,0,0,0,1.05-11.58c-1.26-10.16-12.52-16.85-12.21-26.9.16-5.1,4-9.46,8.35-11.53s9.27-1.35,13.81-2.85c3.46-1.13,7.2-3.44,10.34-5.37,6.59-4.11,13.47-10.22,14.93-18.72,1.62-9.54-4.12-15.59-7.74-23.54-4.25-9.41-7-20-6.5-30.54a29.72,29.72,0,0,1,.29-3.4c1.23-11.39,6.88-23.07,10.77-33.81a60.41,60.41,0,0,1,8.88-16.88c1.68-2.07,3.84-4.9,6.37-5.71,10.69-3.39,19.18-.24,27,7.3,5,4.84,10,9.62,15,14.42q6.36,6.15,12.81,12.32a25.43,25.43,0,0,0,5.38,4.46c2.16,1.22,4.44,2.21,6.54,3.56a26,26,0,0,1,8.27,8.91c5.2,9,10.77,17.28,15.28,26.66.25.51.5,1,.69,1.49,1,2,1.72,4.12,2.54,6.23,1.68,2.95,3.26,6,5,8.92a51.49,51.49,0,0,0,5.86,8.5c4.63,5.44,9.1,10.94,13.28,16.61,2,2.79,4,5.51,5.86,8.4,3.28,4.86,6.44,9.75,9.39,14.85.09.06.13.2.23.3,1.58,2.69,3,5.44,4.49,8.12.71,1.32,1.43,2.71,2.19,4,2.47,4.08,5.07,7.64,7.27,12,1.06,2.15,2.08,4.42,3.13,6.69a70.74,70.74,0,0,0,4.81,9c1.33,2.15,2.8,4.16,4.28,6.16,1.87,2.62,3.81,5.17,5.71,7.74,2.67,3.48,5.14,7,7.57,10.56.89,1.29,1.79,2.6,2.66,3.89.52.75,1.13,1.57,2,1.67a1.81,1.81,0,0,0,1.69-.88,3.14,3.14,0,0,0,.42-2c-.38-3.46-4.71-7.62-6.84-10s-4.35-5-6.38-7.58c-1-1.25-2-2.55-2.91-3.84-2.67-3.63-5.18-7.41-7.52-11.27-.28-.42-.54-.9-.82-1.36-.51-.92-1.05-1.84-1.58-2.82-.33-.58-.67-1.2-1-1.77-9.6-19.41-18.77-37.69-32.55-54-2-2.31-3.9-4.72-5.83-7.09-2.12-2.69-4.25-5.34-6.44-7.89-1.65-1.92.88-3.29,2.38-3.36A19.7,19.7,0,0,1,307,293.7a29,29,0,0,1,11.55,7.61c1.58,1.66,2.89,3.66,4.43,5.36,1.81,2,3.93,3,5.94,4.63,6.74,5.54,14.64,7,22.75,8.73,24.9,5.05,51.14-1.13,71.95-16.59,7.58-5.62,23.07-17.23,23.15-27.93.08-12.05-12.53-17.22-14.49-28.39a19.09,19.09,0,0,1,5.08-16.65c1.39-1.39,2.84-2.81,4.14-4.34C462.79,201,473.68,168,485.16,137c2.45-6.59,4.94-13,7.87-19.35,2.79-6.09,5-12.41,5-19.3,0-5.43-.35-10.94,0-16.44a4.88,4.88,0,0,1,.09-1.13c.18-1.4.79-1.22,2.09-2.75C501.18,76.68,501.58,76,500.6,74.39ZM449.12,35.27s0,0,0,.08a.5.5,0,0,0-.08.14l0,.13a.54.54,0,0,0,0,.15.22.22,0,0,1-.06.14l-.05,0h0a.52.52,0,0,1-.12.19.49.49,0,0,1-.33.2c-.53.15-1.34-.29-2.16-.9-.35-.26-.7-.57-1-.87s-.43-.39-.63-.59c-.47-.49-.85-.9-1-1.09s-.4-.48-.57-.7c-1.15-1.73-.61-3.23.22-5.2.16-.39.32-.8.5-1.23l1.19-3.05c1.17-3.05,2.3-6.06,3.48-9.13a4,4,0,0,1,.63-1,.79.79,0,0,1,.31-.2h.06c.24,0,.66.35,1.12.84.1.09.2.2.31.31.51.55,1.07,1.21,1.54,1.78.15.18.29.34.4.49l.2.25c.2.23.34.39.43.48a7.4,7.4,0,0,1,.51.63,1.81,1.81,0,0,1,.2.33,2.87,2.87,0,0,1,.3.67,3.14,3.14,0,0,1,.15.74,5.29,5.29,0,0,1-.11,1.5c-.06.37-.14.76-.23,1.15-.26,1.17-.61,2.38-1,3.57-1,2.61-2.05,5.2-3.07,7.71C449.78,33.63,449.44,34.45,449.12,35.27Zm4.4,2.85a2.38,2.38,0,0,1-1.6-2.35,4.91,4.91,0,0,1,2.37-4.66c2.66-1.49,6.59-5,8.85-.94a2.69,2.69,0,0,1,.44,1.22,4.1,4.1,0,0,1-.89,4.11C460.54,38,455.93,39.17,453.52,38.12Zm15.24,10.29L468.15,50s0,.13,0,.15,0,0,0,0h0a1.36,1.36,0,0,1-.1.21.56.56,0,0,1-.33.22,1.43,1.43,0,0,1-.81-.1,4.94,4.94,0,0,1-.72-.37,12.34,12.34,0,0,1-1.07-.76,18.26,18.26,0,0,1-1.4-1.27l-.19-.19-.47-.46c-.08-.09-.16-.16-.21-.21a6.79,6.79,0,0,1-.55-.75s0,0,0,0a3.62,3.62,0,0,1-.49-1,4.77,4.77,0,0,1,.29-3.09c.14-.37.29-.73.44-1.12s.32-.8.49-1.24a4.65,4.65,0,0,1,.2-.52c.16-.44.36-.87.51-1.3,0,0,0-.1.05-.15l3.15-8.1c.25-.64.49-1.34.73-2.05l.19-.38v0a2.76,2.76,0,0,1,.46-.67,1.12,1.12,0,0,1,.33-.28c.09,0,.21,0,.38.16a3.26,3.26,0,0,1,.49.42,4,4,0,0,0,.29.29,0,0,0,0,1,0,0c.78.81,1.76,2,2.37,2.76l.21.26c.14.15.24.27.32.34a4.38,4.38,0,0,1,.49.59s0,0,0,0a3.74,3.74,0,0,1,.51,3.24c-.1.52-.21,1-.35,1.55a75.32,75.32,0,0,1-3.82,10.64ZM483,47.63a.24.24,0,0,0,0,.1,5,5,0,0,1-1.06,2,9.82,9.82,0,0,1-7.88,3c-1.66-.24-2.86-1.11-2.86-2.71v-.58a4.9,4.9,0,0,1,2.38-4.11c2.69-1.46,6.62-5,8.84-.94a5.17,5.17,0,0,1,.67,2.13A5.35,5.35,0,0,1,483,47.63ZM25.23,225.79a16.77,16.77,0,0,1-2.69.2,9.1,9.1,0,0,1-2.44-.28,3.43,3.43,0,0,1-.61-.16,6.82,6.82,0,0,1-.95-.34,4.6,4.6,0,0,1-1.42-1,1.53,1.53,0,0,1-.39-.45,3,3,0,0,1-.46-1.12,6,6,0,0,1,0-3v0a4.69,4.69,0,0,1,.31-1.12c.13-.37.29-.71.44-1a1.35,1.35,0,0,1,.19-.38c.26-.58.54-1.15.83-1.73l.37-.74a3.81,3.81,0,0,0,.19-.45c.16-.41.33-.78.48-1.18.33-.79.6-1.6,1-2.39.13-.26.23-.58.35-.88s.13-.44.23-.68.09-.27.13-.41a7.46,7.46,0,0,1,.72-1.59c.07-.07.09-.17.19-.24a2.88,2.88,0,0,1,.19-.24c0-.06.06-.1.1-.1a2.06,2.06,0,0,1,.28-.3h0c1-.76,2-.34,2.85.74a2.94,2.94,0,0,1,.32.37,15.2,15.2,0,0,1,1.39,2.41c.2.38.35.76.54,1.16a3.7,3.7,0,0,0,.27.58c.15.41.31.81.46,1.23.7,1.87,1.27,3.73,1.72,5.16.15.47.29.91.38,1.29s.22.64.28.85c.13.4.26.81.36,1.22a4.52,4.52,0,0,1,.06,2.13A2.66,2.66,0,0,1,29,225.07a14.48,14.48,0,0,1-2.93.62C25.74,225.71,25.46,225.75,25.23,225.79Zm43.21-10.4a8.64,8.64,0,0,1-1.46.1,10.76,10.76,0,0,1-2.22-.13.71.71,0,0,1-.31,0c-.17,0-.33,0-.46-.06a3.67,3.67,0,0,1-.69-.18,1.93,1.93,0,0,1-.45-.1v0a3.8,3.8,0,0,1-1.29-.78,1.88,1.88,0,0,1-.52-1.29.59.59,0,0,1,0-.26.88.88,0,0,1,0-.32c.09-.26.15-.5.21-.74s.13-.47.19-.75c.87-3.53,1.33-7.21,3.33-10.29a0,0,0,0,1,0,0,3.19,3.19,0,0,1,.28-.44,2.32,2.32,0,0,1,.36-.48l.21-.24c.35-.26.7-.44,1.08-.16h0a.58.58,0,0,1,.25.28,7.05,7.05,0,0,1,.81,1.59,3.29,3.29,0,0,1,.23.62.64.64,0,0,1,.13.26,3.73,3.73,0,0,0,.22.61s0,.07,0,.1,0,.11.06.14,0,.1,0,.14a1.37,1.37,0,0,1,.12.26c.5,1,1,2,1.4,3s.95,2,1.43,3c.79,1.73,1.48,3.26-.13,4.82a4.72,4.72,0,0,1-2,1.13,3.15,3.15,0,0,1-.71.2A1,1,0,0,1,68.44,215.39Zm49-15.6a5.52,5.52,0,0,1-.58,0,5.25,5.25,0,0,1-3.74-2.31,3.09,3.09,0,0,1-.29-.66,2.83,2.83,0,0,1,0-1.39,5.32,5.32,0,0,1,.26-1.22c.12-.48.25-1,.35-1.43.47-2.11,1-4.1,1.58-6.18v0c.35-1.06.66-2.11,1-3.17a3.73,3.73,0,0,1,.52-1.25.41.41,0,0,1,.35-.17.35.35,0,0,1,.25,0,.62.62,0,0,1,.25.17,0,0,0,0,1,0,0,1.61,1.61,0,0,1,.37.64,3.4,3.4,0,0,1,.29.85c.13.44.22.85.28,1.12.29.95.6,1.9.89,2.88.5,1.6,1,3.27,1.56,4.9a8,8,0,0,1,.21.78,6.87,6.87,0,0,1,.35,2c0,.14,0,.24,0,.38a.88.88,0,0,1,0,.23,2.06,2.06,0,0,1,0,.86,2.66,2.66,0,0,1-.25.57,1.48,1.48,0,0,1-.16.27,2,2,0,0,1-.13.24,6,6,0,0,1-.66.81h0a.78.78,0,0,1-.33.24,3.54,3.54,0,0,1-1.45.75h-.06A2.51,2.51,0,0,1,117.45,199.79Zm162.24,62.48-.44-.82-3.83-7.3c-2.79-5.26-5.64-10.66-9.29-15.26a26.5,26.5,0,0,0-6.3-6.25c-3.78-2.31-7.47-4.79-11.1-7.38l-.87-.61c-1-.73-2-1.46-3-2.2l-.87-.64-1.89-1.44-.05,0-1.28-1-2.59-2-.69-.55c-.4-.33-.81-.67-1.22-1s-.93-.76-1.39-1.16l-.07-.07c-1.29-1.16-2.34-2.53-1.86-4.47a4.66,4.66,0,0,1,1.24-2.15,17.54,17.54,0,0,1,4.82-3c6.24-3.46,12.84-5.09,19.72-6,4.37-.58,8.84-.82,13.41-1.09,9.29-.51,18-2.61,25.92-7.89,4.09-2.68,9.29-4.14,13.76-5.93,5.07-2,10-4,15.11-6,4.22-1.15,8.88-4.69,12.78-6.7,4.18-2.24,8.38-4.44,12.62-6.65,12.3-6.56,24.47-13.25,37.31-18.56,13.84-5.77,28.31-9.74,42.19-15.59q2.71-1.17,5.38-2.36c3.51-1.57,7-3.2,10.42-4.87,1.17-.56,2.33-1.14,3.48-1.72l1.73-.87c.1,0,.22-.1.32-.16,1.67-.84,3.32-1.71,5-2.58s3.49-1.88,5.23-2.83l.33-.19c1.61-1,4.76-3.65,7.09-4a2,2,0,0,1,2.48,1.25c1.24,2.93-4.31,12.2-5.49,15-11.79,28.61-22.51,57.29-40.47,82.25a56.07,56.07,0,0,1-4.63,5.78c-6.07,6.41-11.8,11.41-13.22,20.43a25.85,25.85,0,0,0-.29,2.74c-.5,9.3,4.13,18.48,8,26.5,1.56,3.15,3.08,6.59,2.79,10.19a13.56,13.56,0,0,1-4.91,9c-12.81,11.07-29.33,15.11-45.42,16.07-11.35.65-23.88.23-33-7.95-4.15-3.7-6.88-8.7-11.22-12.26a39.47,39.47,0,0,0-16.73-8,103.89,103.89,0,0,0-19.24-2.05C284.69,269.69,282,266.35,279.69,262.27Zm217-186.1c-.14.37-.42.51-.67.75a1.39,1.39,0,0,0-.7.78c-1.52,3-.5,9.1-.5,12.52v.42c0,1.35,0,2.65.08,4.1,0,.24,0,.52,0,.79a16.32,16.32,0,0,1,.15,2.52v1.69a39.69,39.69,0,0,1-1.8,11.52c-1.21,4.25-3.81,8.13-5.68,12.09s-3.35,8.33-4.91,12.51c-3.07,8.18-6,16.44-9.16,24.63-.85,2.31-1.71,4.59-2.62,6.86-1.46,3.74-2.95,7.47-4.57,11.17-6.95,16.51-15.16,32.42-26.65,45.87-2.83,3.27-6.32,6.16-9,9.55a23.67,23.67,0,0,0-2.14,3.06c-2.73,4.68-1.44,9.4,1,13.79,1.91,3.33,4.82,6.36,7.58,9.44,2.62,2.93,5.54,7.11,5.89,11.31,1.24,13.73-9.38,21.11-18.61,28-7.35,5.47-15.53,10.47-24.25,13.36a1.89,1.89,0,0,1-.56.2,51.72,51.72,0,0,1-7.55,1.87c-10,1.67-20,3.06-30.18,3.06-10.43,0-19.14-1.39-25.42-4.18-7.13-3.2-11.31-8.32-15-12.84-4.41-5.37-7.9-9.58-16.17-11.39-.5-.11-1-.19-1.52-.27-2.92-.51-5.85-.74-8.78-1.19s-3.31-2.92-4.59-5.36l-2.06-3.93-1.62-3.08c-1-1.93-.92-3.39,1.39-3.39,1.33,0,2.67,0,4,.08l.48,0c.64,0,1.28.05,1.91.1l.6,0c.91,0,1.8.12,2.68.21s1.74.18,2.61.29,1.5.19,2.24.3q2.79.42,5.54,1c13,2.79,19.17,10.34,24.15,16.35,3.17,3.88,5.7,7,9.69,8.76a33.25,33.25,0,0,0,4.42,1.61c.77.21,1.53.41,2.31.59a46.21,46.21,0,0,0,4.73.8,63.78,63.78,0,0,0,7.35.4c1,0,2,0,3.05,0,1.42-.06,2.85-.15,4.27-.25l.23,0c1.89-.15,3.75-.35,5.58-.58l.34,0,2.68-.35,2.82-.4c1.38-.2,2.75-.42,4.06-.62,7.23-1.09,13.92-2.27,20.43-6.07,0,0,.09,0,.12-.12.52-.31,1-.64,1.53-1l.13-.08c.5-.34,1-.69,1.49-1.05s.76-.56,1.12-.85l.78-.6c1.09-.88,2.17-1.79,3.24-2.72l1.43-1.27.53-.46,1.65-1.49.3-.26c1.3-1.15,2.62-2.3,4-3.39,5.3-4.15,5.69-6.9,2.87-11.33a32.71,32.71,0,0,0-1.94-2.77c-.67-.86-1.31-1.75-1.91-2.67,0,0,0-.05,0-.06-5.45-8.26-8.25-18.28-6.17-28.2a34.27,34.27,0,0,1,1.18-4.17A40.05,40.05,0,0,1,420.73,221c4.88-6.4,11-11.74,15.56-18.67,1.29-2,2.53-4,3.7-6,.48-.79,1-1.57,1.4-2.38.8-1.42,1.59-2.85,2.34-4.32s1.52-2.89,2.26-4.35l.09-.2q1.05-2.15,2.06-4.28c.7-1.49,1.39-3,2.06-4.48s1.27-2.89,1.91-4.36,1.33-3.15,2-4.75,1.29-3.19,1.93-4.82c2.54-6.56,4.91-13.25,7.51-19.78a4.3,4.3,0,0,1,.16-.41c1.5-3.73,3-7.41,4.79-11,2.22-4.62,4.38-9.27,6.69-13.83,1.3-2.55,2.6-5.06,3.9-7.61.54-1,1.21-1.93,1.77-2.92a33.68,33.68,0,0,0,1.65-3.43,19.45,19.45,0,0,0,1.24-3.78c.21-1,.35-2,.63-2.91.76-2.45.7-5.41.95-8,0-2.15-.16-4.15-.16-6.33a4.34,4.34,0,0,0-.5-2.45c-.36-.46-.83-.74-1.21-1.15-1.77-1.94-.75-3.43.48-5.16,1.49-2,2.95-4.05,4.44-6.08a.15.15,0,0,1,.06-.1c.73-.93,1.9-1,2.38-.18.76,1.44,3.26,3.61,4.78,5.64A4.77,4.77,0,0,1,497,75.42,1.3,1.3,0,0,1,496.71,76.17Z" fill="#eaeaea"></path>
      <path d="M339.29,228.4c5.48,3.48,2.12,13.52-5,11.35a26.24,26.24,0,0,0-4.37-.74c-7-.78-18.2-1.16-23.57-5.59-2.45-2-3.7-4.88-2.75-9,1.19-5.27,5.77-7.36,10.8-8a6.18,6.18,0,0,1,4.29-6.78c7.39-2.45,20.55-7,25.87,1.47,3,4.78,1.14,11-2.42,15A14.26,14.26,0,0,1,339.29,228.4Z" fill="#eaeaea"></path>
      <path d="M417.49,236.83l-5.34-.77" fill="#eaeaea"></path>
      <path d="M258.72,198.94c-1.2-.87-2.46-1.8-3.71-2.78l-4.76-3.56" fill="#eaeaea"></path>
      <path d="M593.79,207.87c-1.34-4.13-5-9.8-6-11.27-2.6-4.14-5.2-8.25-7.92-12.3-5.68-8.49-12.08-15.79-18.74-23.3-5.07-5.81-10.17-11.55-15.27-17.36L524.2,119.07c-3.64-4.07-7-8.29-10.46-12.6a29.65,29.65,0,0,1-3.1-4.52,25.62,25.62,0,0,1-1.56-5.4c-1.58-9.48-.76-19.5-.66-29.12,0-3.29,0-6.59.22-9.85a22.26,22.26,0,0,1,.48-4.86,6.91,6.91,0,0,1,1.9-2.54l28.72-29a1.07,1.07,0,0,1,.57-.4,1,1,0,0,1,.38-.21,2.52,2.52,0,0,1,1.49,0l.5.13a8.47,8.47,0,0,0,1,.1,4,4,0,0,0,1.55-.27,3.49,3.49,0,0,0,.92-.41,8.62,8.62,0,0,0,.88-.57,4.34,4.34,0,0,1,.64-.72c.19-.34.38-.61.54-.91a2.77,2.77,0,0,0,.38-1,4.47,4.47,0,0,0,.25-1.6v-.78a2.9,2.9,0,0,0-.25-.78c0-.1,0-.14,0-.17a2.46,2.46,0,0,0-.35-.95c-.16-.21-.35-.58-.54-.82a5.12,5.12,0,0,0-4.76-2,5.21,5.21,0,0,0-3.48,2.41A3.7,3.7,0,0,0,539,13c-.1.31-.19.62-.32.92a6.56,6.56,0,0,0-.13.92,7,7,0,0,0,.13,1.83,2.47,2.47,0,0,1-.57,2.14L508.7,48.44a10.18,10.18,0,0,0-2.94,7.21V90.47a52.22,52.22,0,0,0,.79,11.31,1.24,1.24,0,0,0,.09.48,10.59,10.59,0,0,0,.92,2,2.29,2.29,0,0,0,.16.31c1.46,2.48,3.68,4.41,5.52,6.52,2.28,2.62,4.5,5.3,6.53,8.12a252,252,0,0,0,21.8,25.68c7,7.31,15.09,13.25,21.12,21.54,5.1,7,10.2,13.93,15.31,20.93,2.66,3.66,5.24,7.36,7.75,11.14,2.29,3.46,2.83,7.86,4.74,11.66a4.9,4.9,0,0,0,1.18,1.7,1.62,1.62,0,0,0,1.87.24C594.53,211.46,594.43,209.84,593.79,207.87ZM543.6,12.64a2.43,2.43,0,0,1,2.32,2.51,2.39,2.39,0,0,1-2.32,2.45,2.34,2.34,0,0,1-2.28-2.45A2.37,2.37,0,0,1,543.6,12.64Z" fill="#eaeaea"></path>
      <path d="M553.77,21.29a5.33,5.33,0,0,0-4.32,4.48,5.32,5.32,0,0,0-.1,1.23,3.48,3.48,0,0,1-.94,2.68l-22.08,22a4.84,4.84,0,0,0-2.57-.76,5.29,5.29,0,0,0-5.1,5.5,5.07,5.07,0,0,0,10,1.52,5.91,5.91,0,0,0-.43-4.2l21.5-21.49a2.51,2.51,0,0,1,2.74-.55,4.73,4.73,0,0,0,2.77.4,5.32,5.32,0,0,0,4.28-4.63A5.31,5.31,0,0,0,553.77,21.29ZM523.76,59a2.5,2.5,0,0,1-2.43-2.57v-.07a2.88,2.88,0,0,1,2.16-2.5c.13,0,.24,0,.37,0a.45.45,0,0,1,.24,0,2.56,2.56,0,0,1,2.09,2.57A2.52,2.52,0,0,1,523.76,59Zm33-31.45a2.35,2.35,0,0,1-1.48,1.6,2.5,2.5,0,0,1-3.17-3,2.44,2.44,0,0,1,1.89-2A2.53,2.53,0,0,1,556.74,27.58ZM524,53.85h-.14a.45.45,0,0,1,.24,0S524,53.85,524,53.85Zm-2.67,2.54a2.88,2.88,0,0,1,2.16-2.5A2.51,2.51,0,0,0,521.33,56.39ZM524,53.85h-.14a.45.45,0,0,1,.24,0S524,53.85,524,53.85Z" fill="#eaeaea"></path>
      <path d="M508.24,104.57a15.5,15.5,0,0,1-5.1,1.7" fill="#eaeaea"></path>
      <path d="M304.24,170.3a1,1,0,0,1-1.21,1c-1.51,0-3,0-4.5,0a2.63,2.63,0,0,1-2.39-.9,2.85,2.85,0,0,1-.2-1.77,21.83,21.83,0,0,1,2.89-7.2c.47-.83,1.58-3.82,2.62-3.25s1.75,4.94,2.12,6.06A11.83,11.83,0,0,1,304.24,170.3Z" fill="#eaeaea"></path>
      <path d="M305.12,171.1a1.77,1.77,0,0,1-1.78,1.22,31,31,0,0,1-7.13-.47,1.43,1.43,0,0,1-.84-.32c-.47-.43-.37-1.26-.2-1.91,1-4,2.49-8.58,4.84-12,1.44-2,2.18-.62,2.72,1.26l2,7.06C305.25,167.64,305.72,169.47,305.12,171.1Z" fill="#eaeaea"></path>
      <path d="M353.66,145.15a1.93,1.93,0,0,0,1.11-1.73c.41-2.63-.37-5.33-1.17-7.89a47.26,47.26,0,0,0-2.79-7.46c-.24-.36-.51-.86-.91-1,0,0,0,0-.07,0l0,0a.36.36,0,0,0-.27-.07c-.67.1-.44.39-.67.86q-1,2.06-2.09,4.11c-.17.36-.33.68-.47,1,0,0,0,0,0,0l-.1.22s0,.07,0,.14c-1.17,2.41-2.22,4.86-3.16,7.39a19.47,19.47,0,0,0-.84,2.81,2.57,2.57,0,0,0,0,.83c.2.57.91.75,1.48.82,1.11.18,2.22.33,3.33.47C349.19,146,351.61,146.27,353.66,145.15Z" fill="#eaeaea"></path>
      <path d="M173.48,396c-.55-.25-1.07-.49-1.62-.77" fill="#eaeaea"></path>
      <path d="M8.1,258.25c-1,0-2,.09-3,.18" fill="#eaeaea"></path>
      <path d="M305.86,166.27c-.86-2.55-1.71-5.16-2.51-7.71-.7-2-1.56-3.55-3.36-1.38-3,3.7-4.82,8.67-6,13-.2.71-.3,1.61.25,2.08a2.16,2.16,0,0,0,1,.38,45.7,45.7,0,0,0,8.83.52,3.17,3.17,0,0,0,1.31-.33,1.8,1.8,0,0,0,.85-1C307,170.06,306.46,168.07,305.86,166.27ZM348,125.65a11.84,11.84,0,0,0-2.27,3.48c-1.26,2.62-7.72,16.44-2.75,17.3,1.18.2,2.36.4,3.58.55,2.4.36,5,.66,7.2-.6a3.15,3.15,0,0,0,.83-.76,3,3,0,0,0,.39-1.26,4.83,4.83,0,0,0,.09-1.16C355.23,140.38,351.78,122.42,348,125.65Z" fill="#eaeaea"></path>
      <path d="M473.61,34.61a64.48,64.48,0,0,1-4.16,12.19c-.49,1.08-.9,2.16-1.32,3.2,0,0,0,.18-.07.18-.27.71-1.07.52-2,0a21,21,0,0,1-3.33-2.89c-2.19-2.57-.94-4.32.17-7.25.24-.71.56-1.34.76-2l3.16-8.1c.24-.63.48-1.34.73-2.05a2.74,2.74,0,0,1,1-1.33c.62-.15,3.5,3.64,4.06,4.23A3.79,3.79,0,0,1,473.61,34.61Z" fill="#eaeaea"></path>
      <path d="M454.4,20.38a45.53,45.53,0,0,1-1.21,4.72c-1.28,3.49-2.78,6.91-4.06,10.18a1,1,0,0,0-.21.48.26.26,0,0,1-.1.19c-.83,1.71-4.72-2.31-5.31-3.05-2.18-2.41-1-4.24.18-7.13,1.59-4.13,3.08-8.11,4.64-12.19.25-.45.49-1,.94-1.23.66-.19,3.5,3.57,4.06,4.16A3.89,3.89,0,0,1,454.4,20.38Z" fill="#eaeaea"></path>
      <path d="M476.8,110.34c-.32-.68-.64-1.39-.95-2.1" fill="#eaeaea"></path>
      <path d="M474.29,104.64c-.22-.51-.44-1-.63-1.5" fill="#eaeaea"></path>
      <path d="M508.59,105.76l.85-.65a6.83,6.83,0,0,0,1.43-1.36,7.28,7.28,0,0,0,.86-4.14" fill="#eaeaea"></path>
      <g>
        <path d="M193,185.63a13.55,13.55,0,0,0-11.41.88,7.73,7.73,0,0,0-1.24.75,14.43,14.43,0,0,0-1.2.85c-.38.27-.76.61-1.15.95-3.61,3.29-7.92,6.86-10.46,11.14a56.06,56.06,0,0,0-3.93,9l-.28.82c-1.3,3.5-2.76,6.93-4.19,10.29-3.86,9.17-7.22,17.84-8.08,28a83.85,83.85,0,0,0,2.54,28.67A79.52,79.52,0,0,0,162,297.06c1.52,2.55,4.28,5.54,3,8.9-1,2.65-4.79,4.93-6.91,6.42a45.74,45.74,0,0,1-18.45,7.75C130,321.79,118.3,329.2,117,340.51c-.76,6.49,1.3,13.05,4.15,18.86,2.44,5,7.07,10.05,8.62,15.35s-7.19,8.33-10.21,10.09c-5,2.89-9.92,5.81-14.89,8.67-10,5.74-20,11.28-30.34,16.3a151,151,0,0,1-17,7.48c-1.31.44-2.63.89-3.94,1.36,9.33,0,18.69.33,28.05.75,6.41-3.17,12.75-6.44,18.94-9.82,7.51-4.15,15.4-8.8,24.78-14.65l2.79-1.73c3-1.87,6.06-3.77,8.85-5.88,2.6-2,4.15-6.15,4-10.6a7.08,7.08,0,0,0-.09-1.22,2.17,2.17,0,0,1-.07-.24c-.51-6.11-4-11.65-7-16.54-.38-.65-.79-1.26-1.2-1.9-2.79-4.39-6.28-9.82-4.63-15.19,1.84-6.32,10-9,14.93-10.67,1.75-.54,3.39-1.05,5-1.53,5.48-1.56,10.65-3.09,15.47-6,4.09-2.55,11.12-8,12.52-16.41,1.2-7-1.78-12.27-5.23-18.28-1.08-1.9-2.19-3.84-3.2-5.91a61.21,61.21,0,0,1-5.83-29.56c0-1.22.15-2.48.28-3.63.89-7.95,3.68-14.82,6.66-22.09l.79-2c1.05-2.61,2-5.37,3-8a125.45,125.45,0,0,1,6-14.81c2.25-4.38,5-8.22,9.35-10.26l.8-.27a17,17,0,0,1,3.42-.75s0,0,.06,0a13.49,13.49,0,0,0,3.3-1c1.17-.58,1.65-1.16,1.71-1.73C196.91,187.43,194.75,186.31,193,185.63Z" fill="#eaeaea"></path>
        <path d="M188.39,185.75a11.67,11.67,0,0,1,4.25.81c2.42.94,3.19,1.8,3.18,2s-.34.54-1.16.94a12.19,12.19,0,0,1-2.85.86h-.05l-1,0v.14a14.48,14.48,0,0,0-2.73.66c-.33.1-.63.21-.82.28l-.05,0,0,0c-5,2.3-7.76,6.71-9.82,10.71a125.61,125.61,0,0,0-6,14.71l-.07.22-.12.34c-.91,2.53-1.86,5.15-2.85,7.64l-.79,2c-2.86,7-5.81,14.19-6.72,22.36-.13,1.12-.26,2.43-.29,3.7a62.2,62.2,0,0,0,5.93,30c1,2,2,3.81,3,5.59l.21.38c3.36,5.84,6.26,10.89,5.11,17.61-1.32,8-8.12,13.27-12.05,15.72-4.88,3-10.37,4.56-15.23,5.94-1.54.46-3.12.94-5.05,1.54l-.06,0c-5.06,1.69-13.53,4.52-15.5,11.31-1.78,5.78,1.81,11.41,4.69,15.94l.05.07.36.57c.29.45.57.87.84,1.33l.11.17c2.95,4.75,6.29,10.13,6.78,15.93v.17l0,.09a1.3,1.3,0,0,1,0,.13,6.28,6.28,0,0,1,.07,1c.15,4.16-1.26,8-3.6,9.77-2.58,1.94-5.44,3.74-8.2,5.47l-.57.35-1.4.87-1.39.86c-9.26,5.77-17.12,10.42-24.73,14.62-5.8,3.17-12.08,6.43-18.67,9.69-7-.32-14.51-.61-22-.71a154.46,154.46,0,0,0,14.59-6.48l1-.49c9.06-4.42,18.43-9.46,30.39-16.34,3.11-1.78,6.26-3.62,9.31-5.4l5.6-3.26c.49-.29,1.15-.62,1.91-1,3.82-1.91,10.21-5.12,8.75-10.23-1-3.35-3.1-6.56-5.15-9.67a54.71,54.71,0,0,1-3.53-5.84c-3.37-6.86-4.7-12.85-4.06-18.3,1.2-10.44,12.16-17.84,21.88-19.52a46.78,46.78,0,0,0,18.85-7.91l.93-.64c2.27-1.55,5.38-3.66,6.34-6.25,1.22-3.23-.68-6.09-2.2-8.38-.33-.48-.63-.94-.89-1.38a78.5,78.5,0,0,1-8.33-19.89,83.45,83.45,0,0,1-2.5-28.34c.84-10,4.13-18.45,8-27.65l.09-.2c1.39-3.29,2.83-6.68,4.12-10.15l.28-.8.11-.28a51.92,51.92,0,0,1,3.75-8.53c2.11-3.58,5.51-6.62,8.79-9.57l1.47-1.33a11.64,11.64,0,0,1,1.06-.89l0,0h0c.35-.28.73-.53,1.13-.8h0l0,0a6.66,6.66,0,0,1,1.1-.66,13.64,13.64,0,0,1,6.33-1.65m0-1a14.64,14.64,0,0,0-6.79,1.76,7.73,7.73,0,0,0-1.24.75,14.43,14.43,0,0,0-1.2.85c-.38.27-.76.61-1.15.95-3.61,3.29-7.92,6.86-10.46,11.14a56.06,56.06,0,0,0-3.93,9l-.28.82c-1.3,3.5-2.76,6.93-4.19,10.29-3.86,9.17-7.22,17.84-8.08,28a83.85,83.85,0,0,0,2.54,28.67A79.52,79.52,0,0,0,162,297.06c1.52,2.55,4.28,5.54,3,8.9-1,2.65-4.79,4.93-6.91,6.42a45.74,45.74,0,0,1-18.45,7.75C130,321.79,118.3,329.2,117,340.51c-.76,6.49,1.3,13.05,4.15,18.86,2.44,5,7.07,10.05,8.62,15.35s-7.19,8.33-10.21,10.09c-5,2.89-9.92,5.81-14.89,8.67-10,5.74-20,11.28-30.34,16.3a151,151,0,0,1-17,7.48c-1.31.44-2.63.89-3.94,1.36h.4c9.2,0,18.42.34,27.65.75,6.41-3.17,12.75-6.44,18.94-9.82,7.51-4.15,15.4-8.8,24.78-14.65l2.79-1.73c3-1.87,6.06-3.77,8.85-5.88,2.6-2,4.15-6.15,4-10.6a7.08,7.08,0,0,0-.09-1.22,2.17,2.17,0,0,1-.07-.24c-.51-6.11-4-11.65-7-16.54-.38-.65-.79-1.26-1.2-1.9-2.79-4.39-6.28-9.82-4.63-15.19,1.84-6.32,10-9,14.93-10.67,1.75-.54,3.39-1.05,5-1.53,5.48-1.56,10.65-3.09,15.47-6,4.09-2.55,11.12-8,12.52-16.41,1.2-7-1.78-12.27-5.23-18.28-1.08-1.9-2.19-3.84-3.2-5.91a61.21,61.21,0,0,1-5.83-29.56c0-1.22.15-2.48.28-3.63.89-7.95,3.68-14.82,6.66-22.09l.79-2c1.05-2.61,2-5.37,3-8a125.45,125.45,0,0,1,6-14.81c2.25-4.38,5-8.22,9.35-10.26l.8-.27a17,17,0,0,1,3.42-.75,0,0,0,0,1,0,0l0,0a13.49,13.49,0,0,0,3.3-1c1.17-.58,1.65-1.16,1.71-1.73.1-1.26-2.06-2.38-3.8-3.06a12.5,12.5,0,0,0-4.62-.88Z" fill="#eaeaea"></path>
      </g>
      <g>
        <path d="M497,75.42a1.26,1.26,0,0,1-.26.75c-.12.37-.41.51-.66.74a1.53,1.53,0,0,0-.7.78c-1.52,3-.51,9.11-.51,12.54v.41c0,1.36,0,2.65.1,4.11,0,.24,0,.51,0,.78a16.36,16.36,0,0,1,.16,2.51v1.7a39.7,39.7,0,0,1-1.81,11.52c-1.2,4.25-3.8,8.12-5.67,12.09s-3.36,8.33-4.92,12.51c-3.07,8.18-6,16.44-9.16,24.63-.85,2.31-1.71,4.58-2.63,6.86-1.46,3.74-2.95,7.47-4.56,11.18-6.94,16.51-15.15,32.41-26.66,45.86-2.82,3.26-6.31,6.15-9,9.55a25.18,25.18,0,0,0-2.16,3.06c-2.72,4.68-1.42,9.41,1.05,13.79,1.9,3.33,4.82,6.35,7.57,9.44,2.63,2.93,5.55,7.1,5.9,11.32,1.24,13.72-9.38,21.09-18.61,28-7.35,5.47-15.53,10.46-24.25,13.35a1.85,1.85,0,0,1-.57.2,52.57,52.57,0,0,1-7.54,1.87c-10,1.66-20,3.06-30.18,3.06-10.42,0-19.14-1.4-25.42-4.18-7.13-3.19-11.31-8.32-15-12.84-4.41-5.37-7.9-9.58-16.17-11.38-3.58-.78-7.48-.65-11-1.57-2.63-.69-4-4.6-5.22-6.84-1-1.71-4.39-6.17-2.82-8.28,1.15-1.55,4.3-.53,5.84-.46q2.83.1,5.66.37a91.29,91.29,0,0,1,10.38,1.59c13,2.79,19.18,10.33,24.16,16.34,3.17,3.87,5.7,7,9.7,8.77,5.7,2.54,12.2,3.39,18.79,3.39,7.93,0,16-1.22,23.05-2.31,7.23-1.08,13.91-2.27,20.41-6.08,0,0,.1,0,.13-.1,5.93-3.57,10.78-8.8,16.16-13.15,6.31-5,5.65-7.91.92-14.1-7.54-9.81-11.31-22.72-6.94-35.09s14.8-19.26,21.75-29.76c1.3-2,2.53-4,3.71-6,.47-.79.95-1.57,1.39-2.38.79-1.43,1.58-2.86,2.35-4.32s1.52-2.88,2.25-4.35l.09-.2c.7-1.43,1.4-2.85,2.06-4.28s1.4-3,2.06-4.48,1.27-2.89,1.9-4.35,1.34-3.16,2-4.76,1.3-3.19,1.93-4.82c2.54-6.56,4.92-13.25,7.52-19.78a1.67,1.67,0,0,1,.16-.4c1.48-3.74,3-7.41,4.78-11,2.22-4.62,4.38-9.28,6.69-13.83,1.3-2.55,2.6-5.06,3.9-7.61.54-1,1.2-1.93,1.77-2.92a37.13,37.13,0,0,0,1.65-3.43,20.54,20.54,0,0,0,1.24-3.77c.22-1,.35-2,.63-2.92.76-2.45.7-5.41.95-8,0-2.14-.16-4.14-.16-6.32a4.27,4.27,0,0,0-.5-2.44,13.15,13.15,0,0,0-1.21-1.16c-1.77-1.93-.76-3.43.48-5.16l4.44-6.08s0-.07.06-.11c.73-.91,1.9-1,2.38-.16.76,1.42,3.26,3.6,4.78,5.63A4.84,4.84,0,0,1,497,75.42Z" fill="#eaeaea"></path>
        <path d="M489.81,66.68a1.1,1.1,0,0,1,1,.59c.76,1.42,3.26,3.6,4.78,5.63A4.84,4.84,0,0,1,497,75.42a1.26,1.26,0,0,1-.26.75c-.12.37-.41.51-.66.74a1.53,1.53,0,0,0-.7.78c-1.52,3-.51,9.11-.51,12.54v.41c0,1.36,0,2.65.1,4.11,0,.24,0,.51,0,.78a16.36,16.36,0,0,1,.16,2.51v1.7a39.7,39.7,0,0,1-1.81,11.52c-1.2,4.25-3.8,8.12-5.67,12.09s-3.36,8.33-4.92,12.51c-3.07,8.18-6,16.44-9.16,24.63-.85,2.31-1.71,4.58-2.63,6.86-1.46,3.74-2.95,7.47-4.56,11.18-6.94,16.51-15.15,32.41-26.66,45.86-2.82,3.26-6.31,6.15-9,9.55a25.18,25.18,0,0,0-2.16,3.06c-2.72,4.68-1.42,9.41,1.05,13.79,1.9,3.33,4.82,6.35,7.57,9.44,2.63,2.92,5.55,7.1,5.9,11.32,1.24,13.72-9.38,21.09-18.61,28-7.35,5.47-15.53,10.46-24.25,13.35a1.85,1.85,0,0,1-.57.2,52.57,52.57,0,0,1-7.54,1.87c-10,1.66-20,3.06-30.18,3.06-10.42,0-19.14-1.4-25.42-4.18-7.13-3.19-11.31-8.32-15-12.84-4.41-5.37-7.9-9.58-16.17-11.38-3.58-.78-7.48-.65-11-1.57-2.63-.69-4-4.6-5.22-6.84-1-1.71-4.39-6.17-2.82-8.28a2.68,2.68,0,0,1,2.27-.86c1.26,0,2.68.36,3.57.4q2.83.1,5.66.37a91.29,91.29,0,0,1,10.38,1.59c13,2.79,19.18,10.33,24.16,16.34,3.17,3.87,5.7,7,9.7,8.77,5.7,2.54,12.2,3.39,18.79,3.39,7.93,0,16-1.22,23.05-2.31,7.23-1.08,13.91-2.27,20.41-6.08,0,0,.1,0,.13-.1,5.93-3.57,10.78-8.8,16.16-13.15,6.31-5,5.65-7.91.92-14.1-7.54-9.81-11.31-22.72-6.94-35.09s14.8-19.26,21.75-29.76c1.3-2,2.53-4,3.71-6,.47-.79.95-1.57,1.39-2.38.79-1.43,1.58-2.86,2.35-4.32s1.52-2.88,2.25-4.35l.09-.2c.7-1.43,1.4-2.85,2.06-4.28s1.4-3,2.06-4.48,1.27-2.89,1.9-4.35,1.34-3.16,2-4.76,1.3-3.19,1.93-4.82c2.54-6.56,4.92-13.25,7.52-19.78a1.67,1.67,0,0,1,.16-.4c1.48-3.74,3-7.41,4.78-11,2.22-4.62,4.38-9.28,6.69-13.83,1.3-2.55,2.6-5.06,3.9-7.61.54-1,1.2-1.93,1.77-2.92a37.13,37.13,0,0,0,1.65-3.43,20.54,20.54,0,0,0,1.24-3.77c.22-1,.35-2,.63-2.92.76-2.45.7-5.41.95-8,0-2.14-.16-4.14-.16-6.32a4.27,4.27,0,0,0-.5-2.44,13.15,13.15,0,0,0-1.21-1.16c-1.77-1.93-.76-3.43.48-5.16l4.44-6.08s0-.07.06-.11a1.83,1.83,0,0,1,1.38-.75m0-1h0a2.8,2.8,0,0,0-2.14,1.1,1.13,1.13,0,0,0-.18.27l-2.31,3.16L483.12,73c-1.17,1.63-2.76,3.86-.4,6.43a7.16,7.16,0,0,0,.59.55,3,3,0,0,1,.54.52,3.52,3.52,0,0,1,.31,1.85c0,1.11,0,2.19.08,3.23s.08,2,.08,3c-.07.74-.12,1.52-.16,2.27a24.32,24.32,0,0,1-.74,5.47,18.35,18.35,0,0,0-.45,2c-.06.34-.13.69-.21,1A19.55,19.55,0,0,1,481.6,103c-.21.43-.4.87-.59,1.29a14.34,14.34,0,0,1-1,2c-.24.43-.49.82-.74,1.21-.36.56-.73,1.15-1.07,1.77-.67,1.32-1.33,2.62-2,3.92s-1.27,2.46-1.9,3.71c-1.68,3.3-3.3,6.7-4.86,10-.61,1.29-1.22,2.57-1.84,3.86-1.54,3.19-3.07,6.7-4.8,11a3.31,3.31,0,0,0-.2.49c-1.49,3.75-2.93,7.62-4.33,11.35-1,2.76-2.09,5.6-3.16,8.38-.72,1.84-1.33,3.37-1.92,4.8-.68,1.61-1.34,3.2-2,4.74l-.5,1.17c-.44,1-.9,2.1-1.39,3.16-.66,1.5-1.37,3-2.05,4.48s-1.34,2.79-2,4.15l-.06.11-.1.22c-.7,1.41-1.44,2.88-2.22,4.29s-1.56,2.9-2.33,4.29c-.44.81-.91,1.58-1.36,2.32h0l0,.06c-1.16,2-2.4,4-3.68,6a91.69,91.69,0,0,1-8.8,10.77c-5,5.57-10.27,11.33-13,19.21-4.13,11.66-1.54,24.8,7.09,36,4.55,6,5,8.21-.74,12.71-1.88,1.51-3.69,3.13-5.45,4.7a72.8,72.8,0,0,1-10.62,8.37l-.26.16v0c-6.2,3.59-12.68,4.78-19.9,5.86-6.66,1-14.95,2.3-22.9,2.3-7.38,0-13.4-1.08-18.38-3.31-3.79-1.7-6.24-4.69-9.34-8.48L333,290c-5-6.1-11.33-13.69-24.59-16.53a92.39,92.39,0,0,0-10.5-1.6c-1.86-.18-3.79-.31-5.71-.38-.32,0-.76-.08-1.23-.16a16.25,16.25,0,0,0-2.38-.24,3.55,3.55,0,0,0-3.07,1.26c-1.71,2.3.57,5.9,2.08,8.28.28.44.51.81.67,1.09s.48.93.74,1.46c1.14,2.31,2.55,5.19,5.09,5.86a38.49,38.49,0,0,0,6,.9,43.43,43.43,0,0,1,5,.67c8,1.74,11.34,5.84,15.61,11l.06.08c3.76,4.58,8,9.77,15.32,13,6.38,2.83,15.07,4.27,25.83,4.27,10.43,0,20.75-1.48,30.34-3.07a53.16,53.16,0,0,0,7.63-1.89,2.74,2.74,0,0,0,.71-.25c7.73-2.57,15.73-7,24.46-13.47l.93-.69c9.06-6.72,19.32-14.34,18.08-28.16-.38-4.61-3.56-9-6.15-11.9l-1.21-1.34a48.35,48.35,0,0,1-6.24-7.93c-2.85-5-3.19-9.12-1.05-12.79a22.3,22.3,0,0,1,2.07-2.94,62.16,62.16,0,0,1,4.9-5.26c1.38-1.37,2.8-2.78,4.08-4.25,10-11.66,18.49-26.32,26.82-46.13,1.69-3.89,3.26-7.85,4.57-11.21.95-2.33,1.83-4.68,2.64-6.87,1.84-4.8,3.64-9.7,5.39-14.44,1.23-3.35,2.5-6.81,3.77-10.19l.87-2.37c1.23-3.36,2.51-6.84,4-10.06.61-1.29,1.31-2.6,2-3.87a42.53,42.53,0,0,0,3.74-8.38,40.39,40.39,0,0,0,1.85-11.79V98a18.31,18.31,0,0,0-.16-2.59c0-.13,0-.27,0-.4s0-.2,0-.3c-.07-1.55-.1-2.81-.1-4.11v-.41c0-.94-.07-2.06-.15-3.24-.2-3.06-.44-6.87.55-8.85l0-.07,0-.08s0-.07.25-.2l.08-.06.05,0,.05,0,.14-.12a2.19,2.19,0,0,0,.74-.9,2.22,2.22,0,0,0,.36-1.2,5.46,5.46,0,0,0-1.59-3.14,32.81,32.81,0,0,0-2.45-2.81,17.23,17.23,0,0,1-2.23-2.68,2.12,2.12,0,0,0-1.88-1.11Z" fill="#eaeaea"></path>
      </g>
    </g>
    <g>
      <path d="M176.66,187.19a85.15,85.15,0,0,0-6.25,5.82c-.72.72-1.49,1.55-2.26,2.32a19.79,19.79,0,0,0-2.6,3.51,61.73,61.73,0,0,0-4.43,10.21c-3.07,8.35-4.62,16.78-7.27,25.28a69.71,69.71,0,0,0-2.6,29.85c1.25,10.41,1.65,21.42,6.94,30.29,1.59,2.63,4.91,6.23,4.52,9.59-.24,2.21-2.79,4.58-4.81,6-6.59,4.69-14.57,5.41-21.88,8.19s-15.15,7.07-19.19,14.75a23.59,23.59,0,0,0-2.55,8.14C100.42,322.36,87.53,302.72,71,286.68c-17.32-16.8-39.68-29.38-62.91-28.45,1.63-1.45,3.17-3,4.81-4.44,0-.1.19-.2.33-.31,13-11.44,27.8-16.39,43.92-20.36,2.93-.72,5.82-1.7,8.8-1.8C70.12,231,74,229.41,78,228.84c4.62-.72,9.48-.36,14.19-1.13a88.09,88.09,0,0,0,17.84-4.8c5.73-2.21,9.53-5.56,14.67-8.81a7.91,7.91,0,0,0,.87-.93c2-2.32,4.14-4.59,6.16-7a28.86,28.86,0,0,1,10.48-8c3.85-1.75,7.6-4.13,11.64-5.16,5.63-1.54,11.35-2.83,16.93-4.59.68-.2,1.35-.25,2.07-.41A30.21,30.21,0,0,0,176.66,187.19Z" fill="#eaeaea"></path>
      <path d="M31.72,223.56a2.91,2.91,0,0,1-2.15,2,19.41,19.41,0,0,1-4.14.78,19.65,19.65,0,0,1-3,.22,10.76,10.76,0,0,1-2.72-.3A4.16,4.16,0,0,1,19,226a5.34,5.34,0,0,1-1.06-.37,4.94,4.94,0,0,1-1.59-1.11,4.14,4.14,0,0,1-1-1.7,6.69,6.69,0,0,1,0-3.25v0a12.44,12.44,0,0,1,.85-2.36,1.58,1.58,0,0,1,.21-.41c.28-.63.6-1.26.92-1.88.14-.26.28-.56.43-.82s.14-.29.21-.48c.17-.44.35-.85.53-1.29.35-.85.67-1.74,1.06-2.59.14-.29.25-.63.39-1s.14-.48.25-.74.1-.29.14-.44a12,12,0,0,1,.81-1.74,2.18,2.18,0,0,1,.21-.26,2,2,0,0,1,.21-.26c0-.07.08-.11.11-.11a2.53,2.53,0,0,1,.32-.33h0c1.1-.81,2.2-.37,3.19.81a3.73,3.73,0,0,1,.35.41,17.77,17.77,0,0,1,1.56,2.62c.21.41.39.82.6,1.26.07.18.18.41.28.63l.53,1.33c.78,2,1.42,4.06,1.91,5.62.18.51.32,1,.43,1.4s.24.7.32.92c.14.45.28.89.38,1.33A4.61,4.61,0,0,1,31.72,223.56Z" fill="#010101"></path>
      <path d="M123.27,196.2c0,.08,0,.19,0,.27a2.32,2.32,0,0,1-.09.94,4.24,4.24,0,0,1-.32.64,1.15,1.15,0,0,1-.22.3,1.34,1.34,0,0,1-.23.26,5.13,5.13,0,0,1-1,.91,1.07,1.07,0,0,1-.45.26,6.08,6.08,0,0,1-2.07.83h-.09a5,5,0,0,1-1.26.15,5.49,5.49,0,0,1-.81,0,7.87,7.87,0,0,1-5.32-2.56,2.88,2.88,0,0,1-.41-.71,2.56,2.56,0,0,1,0-1.55,13.48,13.48,0,0,1,.36-1.35c.18-.53.36-1.09.49-1.58.68-2.34,1.45-4.59,2.26-6.85v0c.49-1.17.94-2.33,1.48-3.5a3.66,3.66,0,0,1,.73-1.39.86.86,0,0,1,.85-.19,1,1,0,0,1,.36.19s0,0,0,0a1.85,1.85,0,0,1,.54.72,3.07,3.07,0,0,1,.4.94c.18.49.32.94.41,1.24.41,1.06.86,2.11,1.26,3.2.72,1.77,1.49,3.61,2.21,5.42a4.73,4.73,0,0,1,.32.87,7.78,7.78,0,0,1,.49,2.19C123.23,195.93,123.27,196.07,123.27,196.2Z" fill="#010101"></path>
      <path d="M72.16,214.59a5.88,5.88,0,0,1-2.5,1.33,3.61,3.61,0,0,1-.88.24,1.17,1.17,0,0,1-.39,0,11.73,11.73,0,0,1-1.83.12,13.43,13.43,0,0,1-2.78-.16,1.23,1.23,0,0,1-.4,0,2.2,2.2,0,0,1-.55-.08,5.68,5.68,0,0,1-.88-.2,2.66,2.66,0,0,1-.55-.16,5.17,5.17,0,0,1-1.63-.93,2.14,2.14,0,0,1-.64-1.54,1.81,1.81,0,0,1,.12-.64c.16-.61.36-1.21.48-1.82,1.07-4.2,1.67-8.56,4.17-12.23a0,0,0,0,1,0,0,4.14,4.14,0,0,1,.36-.53,2.61,2.61,0,0,1,.43-.56l.28-.29c.44-.32.87-.52,1.35-.2h0a1.12,1.12,0,0,1,.32.33,8.17,8.17,0,0,1,1,1.89,5,5,0,0,0,.28.73,5,5,0,0,1,.28.73,4.69,4.69,0,0,0,.2.44s0,.12,0,.16,0,.12.07.16a3,3,0,0,0,.12.33c.64,1.17,1.23,2.38,1.79,3.59s1.19,2.42,1.79,3.59C73.31,210.91,74.18,212.73,72.16,214.59Z" fill="#010101"></path>
      <path d="M191.74,191.4c-1.3.31-2.57.55-3.42.75A17,17,0,0,1,191.74,191.4Z" fill="url(#a695e7fa-bc78-4440-a5e1-e4c15bb95861)"></path>
      <path d="M423.48,273.47c0,.08,0,.17-.06.27-1.09,5.21-3.19,7.66-6.82,10.91l-.3.26c-.55.49-1.1,1-1.65,1.49l-.53.46-1.43,1.27c-1.07.93-2.15,1.84-3.24,2.72l-.78.6c-.36.29-.74.57-1.12.85s-1,.71-1.49,1.05l-.13.08c-.5.33-1,.66-1.53,1,0,.08-.1.08-.12.12-6.51,3.8-13.2,5-20.43,6.07-1.31.2-2.68.42-4.06.62l-2.82.4-2.68.35-.34,0c-1.83.23-3.69.43-5.58.58l-.23,0c-1.42.1-2.85.19-4.27.25-1,0-2,0-3.05,0a63.78,63.78,0,0,1-7.35-.4c-1.6-.2-3.18-.46-4.73-.8-.78-.18-1.54-.38-2.31-.59A33.25,33.25,0,0,1,342,299.5c-4-1.79-6.52-4.88-9.69-8.76-5-6-11.13-13.56-24.15-16.35q-2.75-.57-5.54-1c-.74-.11-1.49-.21-2.24-.3s-1.74-.21-2.61-.29-1.77-.16-2.68-.21l-.6,0c-.87-.07-1.75-.11-2.61-.14h-.13c-1.6-.05-3.22-.07-4.83-.05-.65,0-1.29,0-1.93,0l-5.31-10.13-.44-.82-3.83-7.3c-2.79-5.26-5.64-10.66-9.29-15.26a26.5,26.5,0,0,0-6.3-6.25q-5.64-3.52-11.1-7.38l-.87-.61-3-2.2c-.92-.68-1.85-1.38-2.76-2.08l-.05,0-1.28-1-2.59-2-.69-.55-2.61-2.15-.07-.07q-2.1-1.74-4.14-3.53a.34.34,0,0,0-.22-.2,11.77,11.77,0,0,0,1.78-1.39c.64-.53,1.29-1,2-1.5a37.21,37.21,0,0,1,4.82-3c6.24-3.46,12.84-5.09,19.72-6,2.34,1.79,4.72,3.56,7.07,5.3,10.42,7.84,20.91,15.66,31.34,23.51a40.49,40.49,0,0,0,9.22,5.66c5.37,4.43,16.57,4.81,23.57,5.59,6.9,2.78,14.11,5.08,21.36,3.76,4.4-.88,8.55-3.06,12.76-4.69,14.45-5.55,30.09-4.5,45.4-2.43.9.14,1.82.27,2.72.39v0a31,31,0,0,0,2,18.95,49.39,49.39,0,0,0,4.59,8.43c.22.31.47.65.74,1,0,0,0,0,0,.06,1.32,1.63,3.15,3.54,3.85,5.44a4.24,4.24,0,0,1,.27,1.06A8,8,0,0,1,423.48,273.47Z" fill="#d2d2d2"></path>
      <path d="M479.4,105.83a9.24,9.24,0,0,0-1.75,2.71c-.91,1.91-1.62,4.12-2.35,5.85-2.68,6.25-5.73,12.36-8.17,18.72a.38.38,0,0,1-.1.2c-1.1,3-2.25,5.91-3.33,8.86a4.3,4.3,0,0,0-.16.41c-2.47,6.6-4.91,13.22-7.51,19.78-.64,1.63-1.26,3.22-1.93,4.82s-1.33,3.2-2,4.75-1.25,2.89-1.91,4.36-1.36,3-2.06,4.48-1.36,2.85-2.06,4.28l-.09.2c-.74,1.46-1.47,2.93-2.26,4.35s-1.54,2.9-2.34,4.32c-.44.81-.92,1.59-1.4,2.38-1.17,2-2.41,4-3.7,6a96.72,96.72,0,0,1-10.25,13c-1.74,1.88-3.57,3.73-5.31,5.66a38.1,38.1,0,0,0-7,10,26.18,26.18,0,0,0-1.62,5c-.9-.12-1.82-.25-2.72-.39-15.31-2.07-30.95-3.12-45.4,2.43-4.21,1.63-8.36,3.81-12.76,4.69-7.25,1.32-14.46-1-21.36-3.76a26.24,26.24,0,0,1,4.37.74c7.12,2.17,10.48-7.87,5-11.35a14.26,14.26,0,0,0,2.85-2.41c3.56-3.91,5.45-10.17,2.42-15-5.32-8.44-18.48-3.92-25.87-1.47a6.18,6.18,0,0,0-4.29,6.78c-5,.68-9.61,2.77-10.8,8-1,4.15.3,7,2.75,9a40.49,40.49,0,0,1-9.22-5.66c-10.43-7.85-20.92-15.67-31.34-23.51-2.35-1.74-4.73-3.51-7.07-5.3,4.37-.58,8.84-.82,13.41-1.09,9.29-.51,18-2.61,25.92-7.89,4.09-2.68,9.29-4.14,13.76-5.93,5.07-2,10-4,15.11-6,4.22-1.15,8.88-4.69,12.78-6.7,4.18-2.24,8.38-4.44,12.62-6.65,12.3-6.56,24.47-13.25,37.31-18.56,13.84-5.77,28.31-9.74,42.19-15.59q2.71-1.17,5.38-2.36,5.24-2.35,10.42-4.87c1.16-.56,2.33-1.13,3.48-1.72l1.73-.87c.1,0,.22-.1.32-.16,1.67-.84,3.32-1.71,5-2.58s3.49-1.88,5.23-2.83l.33-.19q3.57-2,7.09-4c1-.59,2-1.2,3-1.81a11.42,11.42,0,0,1,1.95-.8l.08,0a11.64,11.64,0,0,0,1.25-.58A9.23,9.23,0,0,0,479.4,105.83Z" fill="#eaeaea"></path>
      <polygon points="166.12 198.15 166.07 198.38 165.87 198.22 166.12 198.15" fill="#010101"></polygon>
      <polygon points="166.12 198.15 166.07 198.38 165.87 198.22 166.12 198.15" fill="#eaeaea"></polygon>
      <path d="M500.6,74.39a1.93,1.93,0,0,1-.35-.4,89.1,89.1,0,0,0-5.64-7.37c-.29-.37-.54-.71-.83-1.05-2.21-2.65-1.93-4.59-1.93-8.06a15.89,15.89,0,0,0-.28-3.19c-.7-2.45-3-3.42-4.44-5.23-1.23-1.43-.7-3-1-4.86-.35-1.49-.79-3.23-1.87-4.24-.35-.24-.6-.48-.91-.68a4.73,4.73,0,0,0-4.51-.18c-1,.48-2.37,1.91-3.2.66a2.47,2.47,0,0,1-.22-2.35,19.94,19.94,0,0,0,.92-2.17c.85-2.53-.7-5.34-2.25-7.45-1.11-1.77-3-4.55-5-5.26a2.59,2.59,0,0,0-1.2-.17,12.59,12.59,0,0,0-6.06,1.35c-.54.32-1,.52-1.49.78-.66.38-1.27.75-1.93,1.09a3.25,3.25,0,0,1-1.21.44.89.89,0,0,1-.81-.54,2.26,2.26,0,0,1-.23-2.27c.25-.75.67-1.47.92-2.25.83-2.58-.69-5.26-2.25-7.5a14.71,14.71,0,0,0-7.11-5.85c-3.45-1.22-6.52.17-10-.24a8.2,8.2,0,0,1-5.55-2.91c-.69-1-1.29-2.35-2.49-2.49A2,2,0,0,0,428,3.26a3.72,3.72,0,0,0-.06,2.28A7.27,7.27,0,0,0,432,10.12a14.19,14.19,0,0,0,5.9.88,60,60,0,0,1,6-.24c2.6,0,1.81,1.87,1.27,3.84-1.27,4.9-4,9-6.08,13.42-1.43,3.09.34,5.2,2.28,7.51a8.71,8.71,0,0,0,.72,1.26,22.67,22.67,0,0,0,5.15,4c3.67,2.28,7.47,1.74,11.15.14-1.58,2.75-.86,5.26,2.26,8.87a8.5,8.5,0,0,0,.62,1.33c1,.84,2.1,1.79,3.14,2.57a12,12,0,0,0,2.06,1.47,10.32,10.32,0,0,0,7.19,1.25c1-.23,1.94-.44,2.87-.75A31.49,31.49,0,0,0,481.83,53c.23-.1.45-.22.67-.34,1.39-.62,2.66-.32,4.09.78a4.4,4.4,0,0,1,1.08,1.19,6.14,6.14,0,0,1,.63,2.77c0,1.16,0,2.43,0,3.68a7.37,7.37,0,0,1-.12,1.6,21.92,21.92,0,0,1-2.76,4.89,21.92,21.92,0,0,1-3.87,4.34,11.89,11.89,0,0,0-1.52,1.5,4.45,4.45,0,0,0-1.17,3.78,5.17,5.17,0,0,0,.38,1.11,6.53,6.53,0,0,0,.67,1c.64.78,1.59,1.53,1.79,2.6a27.81,27.81,0,0,1,0,3.42,40.22,40.22,0,0,1-.77,9.61,14,14,0,0,1-6.7,9.76c-1,.61-2.15,1.21-3.17,1.93-1.39.92-2.59,1.93-4,2.82-.83.48-1.66.92-2.45,1.4-3.86,2-7.75,4-11.68,5.87-7.84,3.81-15.73,7.45-23.72,10.84-6.5,2.82-13,5.57-19.39,8.59s-13.76,4.8-20.45,7.37c-6.92,2.79-13.8,5.65-20.58,8.64-3.51,1.59-7,3.23-10.49,4.88-2.41,1.23-7.34,3-9.42.62s-.69-6.25,1.6-7.75c1.67-1.11,3.93-1,5.57-2.31a5.76,5.76,0,0,0,1.81-5,18.88,18.88,0,0,0-1.39-5.29c-1-2.73-3.84-14.68-7.26-14.24a5,5,0,0,0-2.92,2.27c-2.5,3.31-4.43,9.28-5.55,11.45-1,2-3.81,8.5-2.09,10.5,1.49,1.7,3.46.37,5,1.47,1.39,1,2,3,2.26,4.62a18.54,18.54,0,0,1-1.43,10.79c-1.5,2.89-4.16,4.6-6.95,5.79s-5.38,2.65-8.18,4.1c-6.62,3.37-13.87,6.19-21.45,6a4.37,4.37,0,0,1-3.1-.88c-.83-.68-2-2.31-1-3.33.56-.57,2.22-.44,3-1,2-1.56,2-4.18,1.61-6.49-.69-3.63-2.56-7.64-3.33-9.74-.66-1.67-2.87-10.37-5.26-5.85-.66,1.39-1.42,2.79-2.16,4.14-1.6,3.1-3.26,6.09-4.84,9.18a10,10,0,0,0-1.65,5.2c.15,1.87,1.65,3,3.14,3.7,1,.41,2.22.38,3.23.85,2.8,1.26,2,5,2.19,7.57.44,6.39-6,7.27-10.65,8.23a112.74,112.74,0,0,1-14.49,2c-6.65.6-13.21,1-19.67,2.51h0c-.57.1-1.15.27-1.71.4a114.24,114.24,0,0,0-15,5c-3.79,1.48-9.14,5.25-13.25,3.1a15.44,15.44,0,0,1-4.2-3c-2.22-2.35-4.47-4.66-6.75-7a21.82,21.82,0,0,0-5.12-4.11c-2.16-1.25-4.35-2.46-6.59-3.54a37.53,37.53,0,0,0-17.14-3.25,53.3,53.3,0,0,0-8.72.91c-3.07.57-6.19.61-9.25,1.25a127,127,0,0,0-13.69,3.7c-9.07,3-18,7.42-24.75,14.72-1.14,1.35-2.32,2.58-3.53,3.76s-2.62,2.59-4.47,2.69a2.45,2.45,0,0,1-2.31-.92,5.1,5.1,0,0,1-.48-2.17,23.48,23.48,0,0,0-.1-2.65,3.43,3.43,0,0,1,.2-1.49c.47-.92,1.4-.55,2.21-.55a5,5,0,0,0,3-1.08,6.48,6.48,0,0,0,1.93-5.64,8.3,8.3,0,0,0-.1-1,22.66,22.66,0,0,0-1.68-5c-.81-1.81-1.48-3.71-2.21-5.58-.93-2.17-1.74-4.41-2.67-6.66-.28-.7-.67-1.52-1.39-1.6s-1.4.9-1.71,1.77c-1.56,4.11-3,8.19-4.63,12.33-.76,2-1.48,4.12-2.25,6.19-.69,1.69-1.21,3.33.6,4.48a6.15,6.15,0,0,0,2.41.62c1.27.2,2.79.4,3.33,1.89.66,2.11-.25,4.7,0,6.91a45.18,45.18,0,0,1-.06,5.83c-.1,2.49-3.46,3.81-5.24,4.52a59.82,59.82,0,0,1-12,3.17,143.6,143.6,0,0,1-23.93,2.61,5.63,5.63,0,0,1-1.37-.1,2.84,2.84,0,0,1-1.49-1.4,4.23,4.23,0,0,1-.63-1.53c-.1-.26-.1-1.08-.19-1.18-.39-.61-.51-1.59-.73-3.46A40.23,40.23,0,0,0,73,217.29a5.29,5.29,0,0,0,2.31-2.61A7.69,7.69,0,0,0,75,210.2a19.3,19.3,0,0,0-2.89-5.28c-1-1.55-1.87-3.28-2.79-5a41.73,41.73,0,0,0-2.63-5,2.28,2.28,0,0,0-1.13-1.08,2.08,2.08,0,0,0-1.72.24,6.42,6.42,0,0,0-1.15,1.36,7.41,7.41,0,0,0-.95,2.68c-1.17,4.59-2.31,9.1-3.48,13.69a7.5,7.5,0,0,0-.32,3c.32,2.17,2.63,2.88,4.21,3.39,1.75.47,3.27.37,4.26,2.28a7.14,7.14,0,0,1,0,6.28,3.58,3.58,0,0,0,.44.51A15.33,15.33,0,0,1,63,228.94c-3.8.92-7.71,1.77-11.6,2.62-6.56,1.6-13.13,3.43-19.27,6.66-1.14.57-2.32.89-3.84,1.56A10.89,10.89,0,0,1,27,237.14a32.61,32.61,0,0,1-.43-4.74c0-2.67.25-3.05,2.85-3.86,2.24-.78,5.77-1.16,5.67-4.46,0-3.12-2.54-6.41-3.84-9.16l-5.16-10.67a12.71,12.71,0,0,0-1.72-2.79,3.47,3.47,0,0,0-2.85-1.09c-2.35.58-2.89,4.38-3.74,6.35-1.29,3.2-2.56,6.49-3.77,9.79l-2,5.88c-.61,1.59-1.66,3.84-.71,5.47a3.24,3.24,0,0,0,1.85,1.39c2.15.58,4.72,0,6.84,0a17.64,17.64,0,0,1,2.47.3c1.46,3.57,1,7.17,1.46,10.88-4.76,4.08-9.63,8-14.32,12.2a5.21,5.21,0,0,0-.64.44c-1.42,1.29-2.95,2.65-4.37,3.86,0,1.33-3.66,2.39-4.45,3.82a1.06,1.06,0,0,0,0,.94c.56,1.59,3.64-.26,4.47-.78a22.86,22.86,0,0,0,3.49-2.66l0,0c1.22-1.05,2.4-2.2,3.59-3.33.39-.38.79-.75,1.19-1.12a2.11,2.11,0,0,1,.36-.31,6.65,6.65,0,0,1,.65-.54c.4-.37.8-.69,1.2-1,.62-.5,1.23-1,1.86-1.48h0c.63-.48,1.26-.94,1.89-1.39a79.58,79.58,0,0,1,9.79-6c8.87-4.58,18.45-7.43,28.53-9.91l1.63-.46.56-.16.5-.12.31-.08a29.7,29.7,0,0,1,5.78-1l.79-.08h0c.26,0,.52-.05.75-.09s.48-.06.72-.11a.13.13,0,0,0,.09,0l1.5-.3.77-.17c.63-.15,1.24-.32,1.87-.48A46.17,46.17,0,0,1,77.26,229a6,6,0,0,1,.74-.11c.49-.08,1-.14,1.47-.19l1.17-.11c.88-.07,1.77-.12,2.65-.18h0c1.14,0,2.35-.1,3.55-.12a44.38,44.38,0,0,0,5.36-.52c.76-.11,1.5-.25,2.25-.39,1.7-.31,3.39-.69,5.07-1.12,1-.22,2-.48,2.92-.77,2.57-.72,5.12-1.57,7.6-2.54.35-.14.71-.26,1-.41a36.81,36.81,0,0,0,6.51-3.61c1.74-1.11,3.42-2.37,5.23-3.56.63-.4,1.27-.82,1.87-1.22h0c.15-.15.3-.29.43-.44s.29-.31.43-.48c.55-.64,1.12-1.28,1.68-1.9,1.5-1.71,3-3.39,4.47-5.13h0a31,31,0,0,1,4.84-4.62,27.72,27.72,0,0,1,5.66-3.36l1.43-.67,1.45-.73c1-.47,1.92-1,2.89-1.41a54.92,54.92,0,0,1,5.26-2.18,133.28,133.28,0,0,1,14.71-4,15.47,15.47,0,0,1,2.36-.57,1.13,1.13,0,0,1,.84.15c1.72,1.35-1.66,4.08-2.32,5a30.5,30.5,0,0,0-1.94,3.1c-.29.52-.57,1-.84,1.57h0c-.54,1.06-1.08,2.14-1.62,3.18-.92,1.72-1.74,3.49-2.51,5.29-.93,2.12-1.81,4.28-2.72,6.4-5.81,13.62-9.89,28.43-10.24,43.48a75.61,75.61,0,0,0,2.54,22,66,66,0,0,0,3.9,10.53c.34.72.75,1.42,1.18,2.15a39.88,39.88,0,0,1,2.46,4.36,9.52,9.52,0,0,1,.85,3c.23,2.31.44,4.7-.35,6.83-1.49,4.09-5,6.52-9.07,8.19-4.89,2-10.56,3-14.48,4.45-.46.18-.93.35-1.39.54-.93.38-1.86.78-2.79,1.21a41,41,0,0,0-7.92,4.72c-.81.64-1.59,1.32-2.33,2a25.22,25.22,0,0,0-4,4.85c-.27.46-.53.93-.79,1.4a24.33,24.33,0,0,0-2.17,5.89,1.46,1.46,0,0,0,0,.2c-.15.68-.26,1.35-.35,2v0a29.23,29.23,0,0,0,1.49,12.22,42.6,42.6,0,0,0,3.14,7.17c2.66,4.86,5.48,9.64,3.58,15.63-1.74,5.4-6.56,7.95-10.81,10.53C91.53,399,70.16,408.64,48.93,418.65l4.45,0c1.31-.47,2.63-.91,3.94-1.36a154.31,154.31,0,0,0,17-7.48c10.3-5,20.36-10.57,30.34-16.3,5-2.85,9.91-5.78,14.9-8.67,3-1.77,11.69-4.89,10.2-10.09s-6.18-10.39-8.62-15.35c-2.85-5.81-4.91-12.37-4.16-18.86,1.31-11.31,13-18.71,22.7-20.38a45.62,45.62,0,0,0,18.45-7.75c2.13-1.49,5.93-3.77,6.91-6.41,1.27-3.37-1.5-6.36-3-8.9a79.82,79.82,0,0,1-8.43-20.15,84.51,84.51,0,0,1-2.12-10.71c-.12-1-.24-2-.34-3a82.74,82.74,0,0,1-.07-14.93A62.21,62.21,0,0,1,153,237.36c.15-.58.31-1.15.47-1.73s.42-1.38.63-2.06c1.41-4.47,3.18-8.81,5.06-13.29,1.43-3.37,2.89-6.79,4.19-10.3l.29-.81a53.5,53.5,0,0,1,3.93-9c2.54-4.28,6.84-7.84,10.46-11.14.21-.19.42-.39.64-.57a10.16,10.16,0,0,1,1-.75h0a4,4,0,0,1,1.13-.53,23.16,23.16,0,0,1,3.65-.39,21.31,21.31,0,0,1,7.07.44c1.12.27,3.09.74,3.79,1.81a.82.82,0,0,1-.25,1.24,10.29,10.29,0,0,1-3.59,1.11,17.12,17.12,0,0,0-4.11,1,11.38,11.38,0,0,0-2.61,1.68c-.26.21-.54.43-.79.67s-.6.54-.89.82-.56.59-.84.9c-.53.61-1,1.26-1.51,1.93a36.39,36.39,0,0,0-2.53,4.27,127.17,127.17,0,0,0-6,14.81c-1,2.65-1.94,5.41-3,8l-.79,2c-3,7.27-5.77,14.14-6.67,22.08-.12,1.16-.25,2.41-.27,3.64a61.23,61.23,0,0,0,5.82,29.56c1,2.07,2.14,4,3.2,5.91,3.47,6,6.44,11.25,5.24,18.28-1.39,8.39-8.44,13.85-12.52,16.4-4.82,3-10,4.48-15.47,6-1.61.48-3.27,1-5,1.53-4.87,1.64-13.08,4.35-14.93,10.67-1.64,5.37,1.85,10.8,4.63,15.18.42.65.82,1.26,1.21,1.91,3,4.9,6.53,10.43,7,16.55a.86.86,0,0,1,.06.23,7.15,7.15,0,0,1,.1,1.22c.16,4.46-1.39,8.64-4,10.61-2.79,2.1-5.86,4-8.85,5.87l-2.79,1.74c-9.38,5.83-17.27,10.49-24.79,14.63-6.18,3.39-12.53,6.66-18.94,9.83l4.15.18c3.23-1.38,5.9-2.49,6.65-2.86,7.35-3.61,14.42-7.62,21.5-11.8s14.28-8.77,21.2-13.52c3.07-2.1,5.57-3.33,6.84-7a26.53,26.53,0,0,0,1.05-11.58c-1.26-10.16-12.52-16.85-12.21-26.9.16-5.1,4-9.46,8.35-11.53s9.27-1.35,13.81-2.85c3.46-1.13,7.2-3.44,10.34-5.37,6.59-4.11,13.47-10.22,14.93-18.72,1.62-9.54-4.12-15.59-7.74-23.54-4.25-9.41-7-20-6.5-30.54a29.72,29.72,0,0,1,.29-3.4c1.23-11.39,6.88-23.07,10.77-33.81a60.41,60.41,0,0,1,8.88-16.88c1.68-2.07,3.84-4.9,6.37-5.71,10.69-3.39,19.18-.24,27,7.3,5,4.84,10,9.62,15,14.42q6.36,6.15,12.81,12.32a25.43,25.43,0,0,0,5.38,4.46c2.16,1.22,4.44,2.21,6.54,3.56a26,26,0,0,1,8.27,8.91c5.2,9,10.77,17.28,15.28,26.66.25.51.5,1,.69,1.49,1,2,1.72,4.12,2.54,6.23,1.68,2.95,3.26,6,5,8.92a51.49,51.49,0,0,0,5.86,8.5c4.63,5.44,9.1,10.94,13.28,16.61,2,2.79,4,5.51,5.86,8.4,3.28,4.86,6.44,9.75,9.39,14.85.09.06.13.2.23.3,1.58,2.69,3,5.44,4.49,8.12.71,1.32,1.43,2.71,2.19,4,2.47,4.08,5.07,7.64,7.27,12,1.06,2.15,2.08,4.42,3.13,6.69a70.74,70.74,0,0,0,4.81,9c1.33,2.15,2.8,4.16,4.28,6.16,1.87,2.62,3.81,5.17,5.71,7.74,2.67,3.48,5.14,7,7.57,10.56.89,1.29,1.79,2.6,2.66,3.89.52.75,1.13,1.57,2,1.67a1.81,1.81,0,0,0,1.69-.88,3.14,3.14,0,0,0,.42-2c-.38-3.46-4.71-7.62-6.84-10s-4.35-5-6.38-7.58c-1-1.25-2-2.55-2.91-3.84-2.67-3.63-5.18-7.41-7.52-11.27-.28-.42-.54-.9-.82-1.36-.51-.92-1.05-1.84-1.58-2.82-.33-.58-.67-1.2-1-1.77-9.6-19.41-18.77-37.69-32.55-54-2-2.31-3.9-4.72-5.83-7.09-2.12-2.69-4.25-5.34-6.44-7.89-1.65-1.92.88-3.29,2.38-3.36A19.7,19.7,0,0,1,307,293.7a29,29,0,0,1,11.55,7.61c1.58,1.66,2.89,3.66,4.43,5.36,1.81,2,3.93,3,5.94,4.63,6.74,5.54,14.64,7,22.75,8.73,24.9,5.05,51.14-1.13,71.95-16.59,7.58-5.62,23.07-17.23,23.15-27.93.08-12.05-12.53-17.22-14.49-28.39a19.09,19.09,0,0,1,5.08-16.65c1.39-1.39,2.84-2.81,4.14-4.34C462.79,201,473.68,168,485.16,137c2.45-6.59,4.94-13,7.87-19.35,2.79-6.09,5-12.41,5-19.3,0-5.43-.35-10.94,0-16.44a4.88,4.88,0,0,1,.09-1.13c.18-1.4.79-1.22,2.09-2.75C501.18,76.68,501.58,76,500.6,74.39ZM449.12,35.27s0,0,0,.08a.5.5,0,0,0-.08.14l0,.13a.54.54,0,0,0,0,.15.22.22,0,0,1-.06.14l-.05,0h0a.52.52,0,0,1-.12.19.49.49,0,0,1-.33.2c-.53.15-1.34-.29-2.16-.9-.35-.26-.7-.57-1-.87s-.43-.39-.63-.59c-.47-.49-.85-.9-1-1.09s-.4-.48-.57-.7c-1.15-1.73-.61-3.23.22-5.2.16-.39.32-.8.5-1.23l1.19-3.05c1.17-3.05,2.3-6.06,3.48-9.13a4,4,0,0,1,.63-1,.79.79,0,0,1,.31-.2h.06c.24,0,.66.35,1.12.84.1.09.2.2.31.31.51.55,1.07,1.21,1.54,1.78.15.18.29.34.4.49l.2.25c.2.23.34.39.43.48a7.4,7.4,0,0,1,.51.63,1.81,1.81,0,0,1,.2.33,2.87,2.87,0,0,1,.3.67,3.14,3.14,0,0,1,.15.74,5.29,5.29,0,0,1-.11,1.5c-.06.37-.14.76-.23,1.15-.26,1.17-.61,2.38-1,3.57-1,2.61-2.05,5.2-3.07,7.71C449.78,33.63,449.44,34.45,449.12,35.27Zm4.4,2.85a2.38,2.38,0,0,1-1.6-2.35,4.91,4.91,0,0,1,2.37-4.66c2.66-1.49,6.59-5,8.85-.94a2.69,2.69,0,0,1,.44,1.22,4.1,4.1,0,0,1-.89,4.11C460.54,38,455.93,39.17,453.52,38.12Zm15.24,10.29L468.15,50s0,.13,0,.15,0,0,0,0h0a1.36,1.36,0,0,1-.1.21.56.56,0,0,1-.33.22,1.43,1.43,0,0,1-.81-.1,4.94,4.94,0,0,1-.72-.37,12.34,12.34,0,0,1-1.07-.76,18.26,18.26,0,0,1-1.4-1.27l-.19-.19-.47-.46c-.08-.09-.16-.16-.21-.21a6.79,6.79,0,0,1-.55-.75s0,0,0,0a3.62,3.62,0,0,1-.49-1,4.77,4.77,0,0,1,.29-3.09c.14-.37.29-.73.44-1.12s.32-.8.49-1.24a4.65,4.65,0,0,1,.2-.52c.16-.44.36-.87.51-1.3,0,0,0-.1.05-.15l3.15-8.1c.25-.64.49-1.34.73-2.05l.19-.38v0a2.76,2.76,0,0,1,.46-.67,1.12,1.12,0,0,1,.33-.28c.09,0,.21,0,.38.16a3.26,3.26,0,0,1,.49.42,4,4,0,0,0,.29.29,0,0,0,0,1,0,0c.78.81,1.76,2,2.37,2.76l.21.26c.14.15.24.27.32.34a4.38,4.38,0,0,1,.49.59s0,0,0,0a3.74,3.74,0,0,1,.51,3.24c-.1.52-.21,1-.35,1.55a75.32,75.32,0,0,1-3.82,10.64ZM483,47.63a.24.24,0,0,0,0,.1,5,5,0,0,1-1.06,2,9.82,9.82,0,0,1-7.88,3c-1.66-.24-2.86-1.11-2.86-2.71v-.58a4.9,4.9,0,0,1,2.38-4.11c2.69-1.46,6.62-5,8.84-.94a5.17,5.17,0,0,1,.67,2.13A5.35,5.35,0,0,1,483,47.63ZM25.23,225.79a16.77,16.77,0,0,1-2.69.2,9.1,9.1,0,0,1-2.44-.28,3.43,3.43,0,0,1-.61-.16,6.82,6.82,0,0,1-.95-.34,4.6,4.6,0,0,1-1.42-1,1.53,1.53,0,0,1-.39-.45,3,3,0,0,1-.46-1.12,6,6,0,0,1,0-3v0a4.69,4.69,0,0,1,.31-1.12c.13-.37.29-.71.44-1a1.35,1.35,0,0,1,.19-.38c.26-.58.54-1.15.83-1.73l.37-.74a3.81,3.81,0,0,0,.19-.45c.16-.41.33-.78.48-1.18.33-.79.6-1.6,1-2.39.13-.26.23-.58.35-.88s.13-.44.23-.68.09-.27.13-.41a7.46,7.46,0,0,1,.72-1.59c.07-.07.09-.17.19-.24a2.88,2.88,0,0,1,.19-.24c0-.06.06-.1.1-.1a2.06,2.06,0,0,1,.28-.3h0c1-.76,2-.34,2.85.74a2.94,2.94,0,0,1,.32.37,15.2,15.2,0,0,1,1.39,2.41c.2.38.35.76.54,1.16a3.7,3.7,0,0,0,.27.58c.15.41.31.81.46,1.23.7,1.87,1.27,3.73,1.72,5.16.15.47.29.91.38,1.29s.22.64.28.85c.13.4.26.81.36,1.22a4.52,4.52,0,0,1,.06,2.13A2.66,2.66,0,0,1,29,225.07a14.48,14.48,0,0,1-2.93.62C25.74,225.71,25.46,225.75,25.23,225.79Zm43.21-10.4a8.64,8.64,0,0,1-1.46.1,10.76,10.76,0,0,1-2.22-.13.71.71,0,0,1-.31,0c-.17,0-.33,0-.46-.06a3.67,3.67,0,0,1-.69-.18,1.93,1.93,0,0,1-.45-.1v0a3.8,3.8,0,0,1-1.29-.78,1.88,1.88,0,0,1-.52-1.29.59.59,0,0,1,0-.26.88.88,0,0,1,0-.32c.09-.26.15-.5.21-.74s.13-.47.19-.75c.87-3.53,1.33-7.21,3.33-10.29a0,0,0,0,1,0,0,3.19,3.19,0,0,1,.28-.44,2.32,2.32,0,0,1,.36-.48l.21-.24c.35-.26.7-.44,1.08-.16h0a.58.58,0,0,1,.25.28,7.05,7.05,0,0,1,.81,1.59,3.29,3.29,0,0,1,.23.62.64.64,0,0,1,.13.26,3.73,3.73,0,0,0,.22.61s0,.07,0,.1,0,.11.06.14,0,.1,0,.14a1.37,1.37,0,0,1,.12.26c.5,1,1,2,1.4,3s.95,2,1.43,3c.79,1.73,1.48,3.26-.13,4.82a4.72,4.72,0,0,1-2,1.13,3.15,3.15,0,0,1-.71.2A1,1,0,0,1,68.44,215.39Zm49-15.6a5.52,5.52,0,0,1-.58,0,5.25,5.25,0,0,1-3.74-2.31,3.09,3.09,0,0,1-.29-.66,2.83,2.83,0,0,1,0-1.39,5.32,5.32,0,0,1,.26-1.22c.12-.48.25-1,.35-1.43.47-2.11,1-4.1,1.58-6.18v0c.35-1.06.66-2.11,1-3.17a3.73,3.73,0,0,1,.52-1.25.41.41,0,0,1,.35-.17.35.35,0,0,1,.25,0,.62.62,0,0,1,.25.17,0,0,0,0,1,0,0,1.61,1.61,0,0,1,.37.64,3.4,3.4,0,0,1,.29.85c.13.44.22.85.28,1.12.29.95.6,1.9.89,2.88.5,1.6,1,3.27,1.56,4.9a8,8,0,0,1,.21.78,6.87,6.87,0,0,1,.35,2c0,.14,0,.24,0,.38a.88.88,0,0,1,0,.23,2.06,2.06,0,0,1,0,.86,2.66,2.66,0,0,1-.25.57,1.48,1.48,0,0,1-.16.27,2,2,0,0,1-.13.24,6,6,0,0,1-.66.81h0a.78.78,0,0,1-.33.24,3.54,3.54,0,0,1-1.45.75h-.06A2.51,2.51,0,0,1,117.45,199.79Zm162.24,62.48-.44-.82-3.83-7.3c-2.79-5.26-5.64-10.66-9.29-15.26a26.5,26.5,0,0,0-6.3-6.25c-3.78-2.31-7.47-4.79-11.1-7.38l-.87-.61c-1-.73-2-1.46-3-2.2l-.87-.64-1.89-1.44-.05,0-1.28-1-2.59-2-.69-.55c-.4-.33-.81-.67-1.22-1s-.93-.76-1.39-1.16l-.07-.07c-1.29-1.16-2.34-2.53-1.86-4.47a4.66,4.66,0,0,1,1.24-2.15,17.54,17.54,0,0,1,4.82-3c6.24-3.46,12.84-5.09,19.72-6,4.37-.58,8.84-.82,13.41-1.09,9.29-.51,18-2.61,25.92-7.89,4.09-2.68,9.29-4.14,13.76-5.93,5.07-2,10-4,15.11-6,4.22-1.15,8.88-4.69,12.78-6.7,4.18-2.24,8.38-4.44,12.62-6.65,12.3-6.56,24.47-13.25,37.31-18.56,13.84-5.77,28.31-9.74,42.19-15.59q2.71-1.17,5.38-2.36c3.51-1.57,7-3.2,10.42-4.87,1.17-.56,2.33-1.14,3.48-1.72l1.73-.87c.1,0,.22-.1.32-.16,1.67-.84,3.32-1.71,5-2.58s3.49-1.88,5.23-2.83l.33-.19c1.61-1,4.76-3.65,7.09-4a2,2,0,0,1,2.48,1.25c1.24,2.93-4.31,12.2-5.49,15-11.79,28.61-22.51,57.29-40.47,82.25a56.07,56.07,0,0,1-4.63,5.78c-6.07,6.41-11.8,11.41-13.22,20.43a25.85,25.85,0,0,0-.29,2.74c-.5,9.3,4.13,18.48,8,26.5,1.56,3.15,3.08,6.59,2.79,10.19a13.56,13.56,0,0,1-4.91,9c-12.81,11.07-29.33,15.11-45.42,16.07-11.35.65-23.88.23-33-7.95-4.15-3.7-6.88-8.7-11.22-12.26a39.47,39.47,0,0,0-16.73-8,103.89,103.89,0,0,0-19.24-2.05C284.69,269.69,282,266.35,279.69,262.27Zm217-186.1c-.14.37-.42.51-.67.75a1.39,1.39,0,0,0-.7.78c-1.52,3-.5,9.1-.5,12.52v.42c0,1.35,0,2.65.08,4.1,0,.24,0,.52,0,.79a16.32,16.32,0,0,1,.15,2.52v1.69a39.69,39.69,0,0,1-1.8,11.52c-1.21,4.25-3.81,8.13-5.68,12.09s-3.35,8.33-4.91,12.51c-3.07,8.18-6,16.44-9.16,24.63-.85,2.31-1.71,4.59-2.62,6.86-1.46,3.74-2.95,7.47-4.57,11.17-6.95,16.51-15.16,32.42-26.65,45.87-2.83,3.27-6.32,6.16-9,9.55a23.67,23.67,0,0,0-2.14,3.06c-2.73,4.68-1.44,9.4,1,13.79,1.91,3.33,4.82,6.36,7.58,9.44,2.62,2.93,5.54,7.11,5.89,11.31,1.24,13.73-9.38,21.11-18.61,28-7.35,5.47-15.53,10.47-24.25,13.36a1.89,1.89,0,0,1-.56.2,51.72,51.72,0,0,1-7.55,1.87c-10,1.67-20,3.06-30.18,3.06-10.43,0-19.14-1.39-25.42-4.18-7.13-3.2-11.31-8.32-15-12.84-4.41-5.37-7.9-9.58-16.17-11.39-.5-.11-1-.19-1.52-.27-2.92-.51-5.85-.74-8.78-1.19s-3.31-2.92-4.59-5.36l-2.06-3.93-1.62-3.08c-1-1.93-.92-3.39,1.39-3.39,1.33,0,2.67,0,4,.08l.48,0c.64,0,1.28.05,1.91.1l.6,0c.91,0,1.8.12,2.68.21s1.74.18,2.61.29,1.5.19,2.24.3q2.79.42,5.54,1c13,2.79,19.17,10.34,24.15,16.35,3.17,3.88,5.7,7,9.69,8.76a33.25,33.25,0,0,0,4.42,1.61c.77.21,1.53.41,2.31.59a46.21,46.21,0,0,0,4.73.8,63.78,63.78,0,0,0,7.35.4c1,0,2,0,3.05,0,1.42-.06,2.85-.15,4.27-.25l.23,0c1.89-.15,3.75-.35,5.58-.58l.34,0,2.68-.35,2.82-.4c1.38-.2,2.75-.42,4.06-.62,7.23-1.09,13.92-2.27,20.43-6.07,0,0,.09,0,.12-.12.52-.31,1-.64,1.53-1l.13-.08c.5-.34,1-.69,1.49-1.05s.76-.56,1.12-.85l.78-.6c1.09-.88,2.17-1.79,3.24-2.72l1.43-1.27.53-.46,1.65-1.49.3-.26c1.3-1.15,2.62-2.3,4-3.39,5.3-4.15,5.69-6.9,2.87-11.33a32.71,32.71,0,0,0-1.94-2.77c-.67-.86-1.31-1.75-1.91-2.67,0,0,0-.05,0-.06-5.45-8.26-8.25-18.28-6.17-28.2a34.27,34.27,0,0,1,1.18-4.17A40.05,40.05,0,0,1,420.73,221c4.88-6.4,11-11.74,15.56-18.67,1.29-2,2.53-4,3.7-6,.48-.79,1-1.57,1.4-2.38.8-1.42,1.59-2.85,2.34-4.32s1.52-2.89,2.26-4.35l.09-.2q1.05-2.15,2.06-4.28c.7-1.49,1.39-3,2.06-4.48s1.27-2.89,1.91-4.36,1.33-3.15,2-4.75,1.29-3.19,1.93-4.82c2.54-6.56,4.91-13.25,7.51-19.78a4.3,4.3,0,0,1,.16-.41c1.5-3.73,3-7.41,4.79-11,2.22-4.62,4.38-9.27,6.69-13.83,1.3-2.55,2.6-5.06,3.9-7.61.54-1,1.21-1.93,1.77-2.92a33.68,33.68,0,0,0,1.65-3.43,19.45,19.45,0,0,0,1.24-3.78c.21-1,.35-2,.63-2.91.76-2.45.7-5.41.95-8,0-2.15-.16-4.15-.16-6.33a4.34,4.34,0,0,0-.5-2.45c-.36-.46-.83-.74-1.21-1.15-1.77-1.94-.75-3.43.48-5.16,1.49-2,2.95-4.05,4.44-6.08a.15.15,0,0,1,.06-.1c.73-.93,1.9-1,2.38-.18.76,1.44,3.26,3.61,4.78,5.64A4.77,4.77,0,0,1,497,75.42,1.3,1.3,0,0,1,496.71,76.17Z" fill="#010101"></path>
      <path d="M339.29,228.4c5.48,3.48,2.12,13.52-5,11.35a26.24,26.24,0,0,0-4.37-.74c-7-.78-18.2-1.16-23.57-5.59-2.45-2-3.7-4.88-2.75-9,1.19-5.27,5.77-7.36,10.8-8a6.18,6.18,0,0,1,4.29-6.78c7.39-2.45,20.55-7,25.87,1.47,3,4.78,1.14,11-2.42,15A14.26,14.26,0,0,1,339.29,228.4Z" fill="#eaeaea"></path>
      <path d="M593.79,207.87c-1.34-4.13-5-9.8-6-11.27-2.6-4.14-5.2-8.25-7.92-12.3-5.68-8.49-12.08-15.79-18.74-23.3-5.07-5.81-10.17-11.55-15.27-17.36L524.2,119.07c-3.64-4.07-7-8.29-10.46-12.6a29.65,29.65,0,0,1-3.1-4.52,25.62,25.62,0,0,1-1.56-5.4c-1.58-9.48-.76-19.5-.66-29.12,0-3.29,0-6.59.22-9.85a22.26,22.26,0,0,1,.48-4.86,6.91,6.91,0,0,1,1.9-2.54l28.72-29a1.07,1.07,0,0,1,.57-.4,1,1,0,0,1,.38-.21,2.52,2.52,0,0,1,1.49,0l.5.13a8.47,8.47,0,0,0,1,.1,4,4,0,0,0,1.55-.27,3.49,3.49,0,0,0,.92-.41,8.62,8.62,0,0,0,.88-.57,4.34,4.34,0,0,1,.64-.72c.19-.34.38-.61.54-.91a2.77,2.77,0,0,0,.38-1,4.47,4.47,0,0,0,.25-1.6v-.78a2.9,2.9,0,0,0-.25-.78c0-.1,0-.14,0-.17a2.46,2.46,0,0,0-.35-.95c-.16-.21-.35-.58-.54-.82a5.12,5.12,0,0,0-4.76-2,5.21,5.21,0,0,0-3.48,2.41A3.7,3.7,0,0,0,539,13c-.1.31-.19.62-.32.92a6.56,6.56,0,0,0-.13.92,7,7,0,0,0,.13,1.83,2.47,2.47,0,0,1-.57,2.14L508.7,48.44a10.18,10.18,0,0,0-2.94,7.21V90.47a52.22,52.22,0,0,0,.79,11.31,1.24,1.24,0,0,0,.09.48,10.59,10.59,0,0,0,.92,2,2.29,2.29,0,0,0,.16.31c1.46,2.48,3.68,4.41,5.52,6.52,2.28,2.62,4.5,5.3,6.53,8.12a252,252,0,0,0,21.8,25.68c7,7.31,15.09,13.25,21.12,21.54,5.1,7,10.2,13.93,15.31,20.93,2.66,3.66,5.24,7.36,7.75,11.14,2.29,3.46,2.83,7.86,4.74,11.66a4.9,4.9,0,0,0,1.18,1.7,1.62,1.62,0,0,0,1.87.24C594.53,211.46,594.43,209.84,593.79,207.87ZM543.6,12.64a2.43,2.43,0,0,1,2.32,2.51,2.39,2.39,0,0,1-2.32,2.45,2.34,2.34,0,0,1-2.28-2.45A2.37,2.37,0,0,1,543.6,12.64Z" fill="#010101"></path>
      <path d="M553.77,21.29a5.33,5.33,0,0,0-4.32,4.48,5.32,5.32,0,0,0-.1,1.23,3.48,3.48,0,0,1-.94,2.68l-22.08,22a4.84,4.84,0,0,0-2.57-.76,5.29,5.29,0,0,0-5.1,5.5,5.07,5.07,0,0,0,10,1.52,5.91,5.91,0,0,0-.43-4.2l21.5-21.49a2.51,2.51,0,0,1,2.74-.55,4.73,4.73,0,0,0,2.77.4,5.32,5.32,0,0,0,4.28-4.63A5.31,5.31,0,0,0,553.77,21.29ZM523.76,59a2.5,2.5,0,0,1-2.43-2.57v-.07a2.88,2.88,0,0,1,2.16-2.5c.13,0,.24,0,.37,0a.45.45,0,0,1,.24,0,2.56,2.56,0,0,1,2.09,2.57A2.52,2.52,0,0,1,523.76,59Zm33-31.45a2.35,2.35,0,0,1-1.48,1.6,2.5,2.5,0,0,1-3.17-3,2.44,2.44,0,0,1,1.89-2A2.53,2.53,0,0,1,556.74,27.58ZM524,53.85h-.14a.45.45,0,0,1,.24,0S524,53.85,524,53.85Zm-2.67,2.54a2.88,2.88,0,0,1,2.16-2.5A2.51,2.51,0,0,0,521.33,56.39ZM524,53.85h-.14a.45.45,0,0,1,.24,0S524,53.85,524,53.85Z" fill="#010101"></path>
      <path d="M305.86,166.27c-.86-2.55-1.71-5.16-2.51-7.71-.7-2-1.56-3.55-3.36-1.38-3,3.7-4.82,8.67-6,13-.2.71-.3,1.61.25,2.08a2.16,2.16,0,0,0,1,.38,45.7,45.7,0,0,0,8.83.52,3.17,3.17,0,0,0,1.31-.33,1.8,1.8,0,0,0,.85-1C307,170.06,306.46,168.07,305.86,166.27ZM348,125.65a11.84,11.84,0,0,0-2.27,3.48c-1.26,2.62-7.72,16.44-2.75,17.3,1.18.2,2.36.4,3.58.55,2.4.36,5,.66,7.2-.6a3.15,3.15,0,0,0,.83-.76,3,3,0,0,0,.39-1.26,4.83,4.83,0,0,0,.09-1.16C355.23,140.38,351.78,122.42,348,125.65Z" fill="#010101"></path>
      <path d="M473.61,34.61a64.48,64.48,0,0,1-4.16,12.19c-.49,1.08-.9,2.16-1.32,3.2,0,0,0,.18-.07.18-.27.71-1.07.52-2,0a21,21,0,0,1-3.33-2.89c-2.19-2.57-.94-4.32.17-7.25.24-.71.56-1.34.76-2l3.16-8.1c.24-.63.48-1.34.73-2.05a2.74,2.74,0,0,1,1-1.33c.62-.15,3.5,3.64,4.06,4.23A3.79,3.79,0,0,1,473.61,34.61Z" fill="#ed6023"></path>
      <path d="M454.4,20.38a45.53,45.53,0,0,1-1.21,4.72c-1.28,3.49-2.78,6.91-4.06,10.18a1,1,0,0,0-.21.48.26.26,0,0,1-.1.19c-.83,1.71-4.72-2.31-5.31-3.05-2.18-2.41-1-4.24.18-7.13,1.59-4.13,3.08-8.11,4.64-12.19.25-.45.49-1,.94-1.23.66-.19,3.5,3.57,4.06,4.16A3.89,3.89,0,0,1,454.4,20.38Z" fill="#ed6023"></path>
      <path d="M193,185.63a13.55,13.55,0,0,0-11.41.88,7.73,7.73,0,0,0-1.24.75,14.43,14.43,0,0,0-1.2.85c-.38.27-.76.61-1.15.95-3.61,3.29-7.92,6.86-10.46,11.14a56.06,56.06,0,0,0-3.93,9l-.28.82c-1.3,3.5-2.76,6.93-4.19,10.29-3.86,9.17-7.22,17.84-8.08,28a83.85,83.85,0,0,0,2.54,28.67A79.52,79.52,0,0,0,162,297.06c1.52,2.55,4.28,5.54,3,8.9-1,2.65-4.79,4.93-6.91,6.42a45.74,45.74,0,0,1-18.45,7.75C130,321.79,118.3,329.2,117,340.51c-.76,6.49,1.3,13.05,4.15,18.86,2.44,5,7.07,10.05,8.62,15.35s-7.19,8.33-10.21,10.09c-5,2.89-9.92,5.81-14.89,8.67-10,5.74-20,11.28-30.34,16.3a151,151,0,0,1-17,7.48c-1.31.44-2.63.89-3.94,1.36,9.33,0,18.69.33,28.05.75,6.41-3.17,12.75-6.44,18.94-9.82,7.51-4.15,15.4-8.8,24.78-14.65l2.79-1.73c3-1.87,6.06-3.77,8.85-5.88,2.6-2,4.15-6.15,4-10.6a7.08,7.08,0,0,0-.09-1.22,2.17,2.17,0,0,1-.07-.24c-.51-6.11-4-11.65-7-16.54-.38-.65-.79-1.26-1.2-1.9-2.79-4.39-6.28-9.82-4.63-15.19,1.84-6.32,10-9,14.93-10.67,1.75-.54,3.39-1.05,5-1.53,5.48-1.56,10.65-3.09,15.47-6,4.09-2.55,11.12-8,12.52-16.41,1.2-7-1.78-12.27-5.23-18.28-1.08-1.9-2.19-3.84-3.2-5.91a61.21,61.21,0,0,1-5.83-29.56c0-1.22.15-2.48.28-3.63.89-7.95,3.68-14.82,6.66-22.09l.79-2c1.05-2.61,2-5.37,3-8a125.45,125.45,0,0,1,6-14.81c2.25-4.38,5-8.22,9.35-10.26l.8-.27a17,17,0,0,1,3.42-.75s0,0,.06,0a13.49,13.49,0,0,0,3.3-1c1.17-.58,1.65-1.16,1.71-1.73C196.91,187.43,194.75,186.31,193,185.63Z" fill="url(#a655c7dd-0aa4-49a4-8a8b-992fd8ea697f)"></path>
      <path d="M497,75.42a1.26,1.26,0,0,1-.26.75c-.12.37-.41.51-.66.74a1.53,1.53,0,0,0-.7.78c-1.52,3-.51,9.11-.51,12.54v.41c0,1.36,0,2.65.1,4.11,0,.24,0,.51,0,.78a16.36,16.36,0,0,1,.16,2.51v1.7a39.7,39.7,0,0,1-1.81,11.52c-1.2,4.25-3.8,8.12-5.67,12.09s-3.36,8.33-4.92,12.51c-3.07,8.18-6,16.44-9.16,24.63-.85,2.31-1.71,4.58-2.63,6.86-1.46,3.74-2.95,7.47-4.56,11.18-6.94,16.51-15.15,32.41-26.66,45.86-2.82,3.26-6.31,6.15-9,9.55a25.18,25.18,0,0,0-2.16,3.06c-2.72,4.68-1.42,9.41,1.05,13.79,1.9,3.33,4.82,6.35,7.57,9.44,2.63,2.93,5.55,7.1,5.9,11.32,1.24,13.72-9.38,21.09-18.61,28-7.35,5.47-15.53,10.46-24.25,13.35a1.85,1.85,0,0,1-.57.2,52.57,52.57,0,0,1-7.54,1.87c-10,1.66-20,3.06-30.18,3.06-10.42,0-19.14-1.4-25.42-4.18-7.13-3.19-11.31-8.32-15-12.84-4.41-5.37-7.9-9.58-16.17-11.38-3.58-.78-7.48-.65-11-1.57-2.63-.69-4-4.6-5.22-6.84-1-1.71-4.39-6.17-2.82-8.28,1.15-1.55,4.3-.53,5.84-.46q2.83.1,5.66.37a91.29,91.29,0,0,1,10.38,1.59c13,2.79,19.18,10.33,24.16,16.34,3.17,3.87,5.7,7,9.7,8.77,5.7,2.54,12.2,3.39,18.79,3.39,7.93,0,16-1.22,23.05-2.31,7.23-1.08,13.91-2.27,20.41-6.08,0,0,.1,0,.13-.1,5.93-3.57,10.78-8.8,16.16-13.15,6.31-5,5.65-7.91.92-14.1-7.54-9.81-11.31-22.72-6.94-35.09s14.8-19.26,21.75-29.76c1.3-2,2.53-4,3.71-6,.47-.79.95-1.57,1.39-2.38.79-1.43,1.58-2.86,2.35-4.32s1.52-2.88,2.25-4.35l.09-.2c.7-1.43,1.4-2.85,2.06-4.28s1.4-3,2.06-4.48,1.27-2.89,1.9-4.35,1.34-3.16,2-4.76,1.3-3.19,1.93-4.82c2.54-6.56,4.92-13.25,7.52-19.78a1.67,1.67,0,0,1,.16-.4c1.48-3.74,3-7.41,4.78-11,2.22-4.62,4.38-9.28,6.69-13.83,1.3-2.55,2.6-5.06,3.9-7.61.54-1,1.2-1.93,1.77-2.92a37.13,37.13,0,0,0,1.65-3.43,20.54,20.54,0,0,0,1.24-3.77c.22-1,.35-2,.63-2.92.76-2.45.7-5.41.95-8,0-2.14-.16-4.14-.16-6.32a4.27,4.27,0,0,0-.5-2.44,13.15,13.15,0,0,0-1.21-1.16c-1.77-1.93-.76-3.43.48-5.16l4.44-6.08s0-.07.06-.11c.73-.91,1.9-1,2.38-.16.76,1.42,3.26,3.6,4.78,5.63A4.84,4.84,0,0,1,497,75.42Z" fill="url(#ea719285-50ea-4d47-850b-c408df7469ec)"></path>
    </g>
  </g>
  <g>
    <path d="M6.27,5.11h-3V3.83h7.59V5.11H7.72v9.51H6.27Z" fill="#231f20"></path>
    <path d="M14.18,3.09v.14c-.12.14-.13.26-.13.64V8a3.08,3.08,0,0,1,2.5-1.48C18,6.48,19,7.41,19,9.81v4.81H17.55V9.85c0-1.59-.57-2.14-1.34-2.14a2.25,2.25,0,0,0-2.16,2.35v4.56H12.58V3.09Z" fill="#231f20"></path>
    <path d="M20.85,10.68c0-2.68,1.65-4.2,3.69-4.2,1.81,0,3.28,1.23,3.28,3.8,0,.21,0,.47,0,.66H22.27a2.48,2.48,0,0,0,2.54,2.68,2.61,2.61,0,0,0,2-.83l.8.76a3.49,3.49,0,0,1-2.84,1.24C22.45,14.79,20.85,13.32,20.85,10.68Zm5.5-.87c0-1.36-.74-2.19-1.9-2.19s-1.94.67-2.13,2.19Z" fill="#231f20"></path>
    <path d="M38.48,6.67H40V8a3.07,3.07,0,0,1,2.56-1.5c1.32,0,2.41.93,2.41,3.33v4.81H43.46V9.85c0-1.56-.57-2.14-1.36-2.14A2.25,2.25,0,0,0,40,10v4.63H38.48Z" fill="#231f20"></path>
    <path d="M46.78,10.68c0-2.68,1.64-4.2,3.68-4.2,1.82,0,3.29,1.23,3.29,3.8,0,.21,0,.47,0,.66H48.2a2.48,2.48,0,0,0,2.54,2.68,2.62,2.62,0,0,0,2-.83l.79.76a3.48,3.48,0,0,1-2.83,1.24C48.37,14.79,46.78,13.32,46.78,10.68Zm5.5-.87c0-1.36-.74-2.19-1.9-2.19s-1.94.67-2.13,2.19Z" fill="#231f20"></path>
    <path d="M58.12,10.61,55.37,6.67H57l1.94,2.78,1.85-2.78h1.52l-2.56,3.87,2.9,4.08H61l-2-2.9L57,14.62H55.34Z" fill="#231f20"></path>
    <path d="M66,10.37l.09-2.51H64.41V6.67h1.71l.07-2,1.54-.19.17,0,0,.12a1,1,0,0,0-.24.66l-.11,1.4h2.7V7.86h-2.7l-.12,2.56c-.1,2.51.32,3.13,1.27,3.13a3.23,3.23,0,0,0,1.9-.78L71,13.89a4.17,4.17,0,0,1-2.56.87C66.47,14.76,65.88,13.5,66,10.37Z" fill="#231f20"></path>
    <path d="M73.8,8.5h4.91V9.81H73.8Z" fill="#231f20"></path>
    <path d="M83.29,11.7a1,1,0,0,0-.33.67c0,.5.62.73,2.52.73,2.3,0,2.85.9,2.85,2.06s-1,2.47-3.56,2.47c-2.23,0-3.61-.73-3.61-2.06a1.92,1.92,0,0,1,1.21-1.74,1.22,1.22,0,0,1-.62-1.09,2.11,2.11,0,0,1,.79-1.49,2.74,2.74,0,0,1-.9-2.09,2.73,2.73,0,0,1,2.84-2.77,2.88,2.88,0,0,1,2,.76,3,3,0,0,1,2.17-.69l.17,1.14A2.66,2.66,0,0,0,87,7.9a2.8,2.8,0,0,1,.27,1.26,2.69,2.69,0,0,1-2.83,2.76A3.07,3.07,0,0,1,83.29,11.7Zm1.55,4.8c1.49,0,2.2-.46,2.2-1.15s-.31-1-1.9-1a7.43,7.43,0,0,1-2-.21,1.35,1.35,0,0,0-.71,1.23C82.42,16.11,83.35,16.5,84.84,16.5Zm1.25-7.34a1.6,1.6,0,1,0-1.61,1.61A1.58,1.58,0,0,0,86.09,9.16Z" fill="#231f20"></path>
    <path d="M90,10.68c0-2.68,1.64-4.2,3.68-4.2,1.82,0,3.29,1.23,3.29,3.8,0,.21,0,.47,0,.66H91.41A2.48,2.48,0,0,0,94,13.62a2.62,2.62,0,0,0,2-.83l.79.76a3.48,3.48,0,0,1-2.83,1.24C91.58,14.79,90,13.32,90,10.68Zm5.5-.87c0-1.36-.74-2.19-1.9-2.19s-1.94.67-2.13,2.19Z" fill="#231f20"></path>
    <path d="M99,6.67h1.47V8A3.06,3.06,0,0,1,103,6.48c1.31,0,2.4.93,2.4,3.33v4.81H104V9.85c0-1.56-.57-2.14-1.37-2.14A2.25,2.25,0,0,0,100.45,10v4.63H99Z" fill="#231f20"></path>
    <path d="M107.28,10.68c0-2.68,1.64-4.2,3.68-4.2,1.81,0,3.28,1.23,3.28,3.8,0,.21,0,.47,0,.66h-5.52a2.48,2.48,0,0,0,2.54,2.68,2.61,2.61,0,0,0,2-.83l.8.76a3.49,3.49,0,0,1-2.84,1.24C108.87,14.79,107.28,13.32,107.28,10.68Zm5.49-.87c0-1.36-.74-2.19-1.9-2.19s-1.93.67-2.12,2.19Z" fill="#231f20"></path>
    <path d="M118.55,6.67l0,1.42A2.64,2.64,0,0,1,121,6.48a2.83,2.83,0,0,1,2.12.88l-.64,1.19-.07.16-.12-.07a1.08,1.08,0,0,0-.4-.57,1.68,1.68,0,0,0-1-.33c-1.14,0-2.3.8-2.3,2.68v4.22H117v-8Z" fill="#231f20"></path>
    <path d="M124.54,12.62c0-1.72,1.71-2.82,4.15-2.82.4,0,.9,0,1.42,0-.14-1.66-.88-2.16-2.23-2.16a2.91,2.91,0,0,0-2.09.86L125,7.64A4,4,0,0,1,128,6.5c2.07,0,3.52.86,3.52,3.78v4.34h-1.57V13.53a2.76,2.76,0,0,1-2.58,1.28C125.55,14.81,124.54,13.91,124.54,12.62Zm3,1.05c1.54,0,2.47-.93,2.58-2.73a13.61,13.61,0,0,0-1.39-.07c-1.73,0-2.73.53-2.73,1.61C126,13.39,126.69,13.67,127.55,13.67Z" fill="#231f20"></path>
    <path d="M135.12,10.37l.09-2.51h-1.66V6.67h1.71l.07-2,1.54-.19.17,0,0,.12a1,1,0,0,0-.24.66l-.11,1.4h2.7V7.86h-2.7l-.12,2.56c-.1,2.51.31,3.13,1.26,3.13a3.18,3.18,0,0,0,1.9-.78l.38,1.12a4.12,4.12,0,0,1-2.55.87C135.6,14.76,135,13.5,135.12,10.37Z" fill="#231f20"></path>
    <path d="M142.69,13.44h2V7.86h-1.91V6.67h3.39v6.77H148v1.18h-5.33Zm1.68-9.3a1,1,0,0,1,1-1,1,1,0,0,1,1,1,1,1,0,0,1-1,1A1,1,0,0,1,144.37,4.14Z" fill="#231f20"></path>
    <path d="M150.3,10.64c0-2.4,1.55-4.14,3.71-4.14s3.72,1.74,3.72,4.14-1.57,4.14-3.72,4.14S150.3,13.08,150.3,10.64Zm5.89,0c0-1.75-.9-2.92-2.18-2.92s-2.18,1.17-2.18,2.92.9,2.94,2.18,2.94S156.19,12.36,156.19,10.63Z" fill="#231f20"></path>
    <path d="M159.47,6.67h1.47V8a3.07,3.07,0,0,1,2.56-1.5c1.32,0,2.41.93,2.41,3.33v4.81h-1.46V9.85c0-1.56-.57-2.14-1.36-2.14A2.25,2.25,0,0,0,160.94,10v4.63h-1.47Z" fill="#231f20"></path>
    <path d="M176.22,10.64c0-2.4,1.56-4.14,3.72-4.14a3.83,3.83,0,0,1,3.72,4.14c0,2.42-1.58,4.14-3.72,4.14S176.22,13.08,176.22,10.64Zm5.9,0c0-1.75-.9-2.92-2.18-2.92s-2.18,1.17-2.18,2.92.9,2.94,2.18,2.94S182.12,12.36,182.12,10.63Z" fill="#231f20"></path>
    <path d="M185.21,7.84V6.67h1.71V6.08A2.81,2.81,0,0,1,190,3a3.27,3.27,0,0,1,2.56,1.08l-.69,1.06-.08.14-.13-.07a1.09,1.09,0,0,0-.32-.61A1.73,1.73,0,0,0,190,4.16c-1,0-1.66.54-1.66,1.9v.61h2.53V7.84h-2.53v6.78h-1.45V7.84Z" fill="#231f20"></path>
    <path d="M202.32,12.62c0-1.72,1.71-2.82,4.15-2.82.4,0,.9,0,1.42,0-.14-1.66-.88-2.16-2.23-2.16a2.91,2.91,0,0,0-2.09.86l-.76-.91a4,4,0,0,1,2.93-1.14c2.08,0,3.53.86,3.53,3.78v4.34H207.7V13.53a2.76,2.76,0,0,1-2.58,1.28C203.32,14.81,202.32,13.91,202.32,12.62Zm3,1.05c1.54,0,2.47-.93,2.58-2.73a13.61,13.61,0,0,0-1.39-.07c-1.73,0-2.73.53-2.73,1.61C203.79,13.39,204.47,13.67,205.33,13.67Z" fill="#231f20"></path>
    <path d="M211.33,6.67h1.47V8a3,3,0,0,1,2.55-1.5c1.32,0,2.41.93,2.41,3.33v4.81h-1.45V9.85c0-1.56-.58-2.14-1.37-2.14A2.25,2.25,0,0,0,212.8,10v4.63h-1.47Z" fill="#231f20"></path>
    <path d="M221.54,10.37l.09-2.51H220V6.67h1.71l.07-2,1.54-.19.17,0,0,.12a1,1,0,0,0-.24.66l-.11,1.4h2.7V7.86h-2.7L223,10.42c-.1,2.51.31,3.13,1.26,3.13a3.23,3.23,0,0,0,1.91-.78l.38,1.12a4.17,4.17,0,0,1-2.56.87C222,14.76,221.44,13.5,221.54,10.37Z" fill="#231f20"></path>
    <path d="M229.11,13.44h2V7.86h-1.9V6.67h3.38v6.77h1.84v1.18h-5.33Zm1.68-9.3a1,1,0,0,1,1-1,1,1,0,0,1,1,1,1,1,0,0,1-1,1A1,1,0,0,1,230.79,4.14Z" fill="#231f20"></path>
    <path d="M238.5,13.64l-.4,1h-1V3.09h1.66v.14c-.14.14-.16.26-.16.64v3.9a2.8,2.8,0,0,1,2.27-1.29c1.94,0,3.25,1.36,3.25,4.08s-1.63,4.25-3.32,4.25A2.77,2.77,0,0,1,238.5,13.64Zm4.09-3c0-2-.79-3-2-3s-2,1.17-2,3,.56,2.93,2,2.93C241.61,13.57,242.59,12.82,242.59,10.66Z" fill="#231f20"></path>
    <path d="M245.36,10.64c0-2.4,1.56-4.14,3.72-4.14s3.71,1.74,3.71,4.14-1.57,4.14-3.71,4.14S245.36,13.08,245.36,10.64Zm5.89,0c0-1.75-.89-2.92-2.17-2.92s-2.18,1.17-2.18,2.92.9,2.94,2.18,2.94S251.25,12.36,251.25,10.63Z" fill="#231f20"></path>
    <path d="M254.1,10.58c0-2.86,1.65-4.12,3.34-4.12a2.32,2.32,0,0,1,2.18,1.23V3.09h1.57v.14c-.14.14-.15.26-.15.64v9.57a2.7,2.7,0,0,0,.18,1.18h-1.45a2.4,2.4,0,0,1-.18-1.11,2.52,2.52,0,0,1-2.21,1.28C255.73,14.79,254.1,13.43,254.1,10.58Zm5.45,0c0-1.76-.62-3-2-3s-2,1.09-2,2.79c0,1.9.77,3.11,2.07,3.11S259.55,12.34,259.55,10.61Z" fill="#231f20"></path>
    <path d="M263.68,13.44h2V7.86h-1.91V6.67h3.39v6.77H269v1.18h-5.33Zm1.68-9.3a1,1,0,0,1,1-1,1,1,0,0,1,1,1,1,1,0,0,1-1,1A1,1,0,0,1,265.36,4.14Z" fill="#231f20"></path>
    <path d="M271.48,10.68c0-2.68,1.64-4.2,3.68-4.2,1.81,0,3.28,1.23,3.28,3.8,0,.21,0,.47,0,.66h-5.52a2.48,2.48,0,0,0,2.54,2.68,2.61,2.61,0,0,0,2-.83l.8.76a3.49,3.49,0,0,1-2.84,1.24C273.07,14.79,271.48,13.32,271.48,10.68ZM277,9.81c0-1.36-.74-2.19-1.9-2.19s-1.93.67-2.13,2.19Z" fill="#231f20"></path>
    <path d="M280.24,13.55l.74-1.32.11-.15.1.07a1.18,1.18,0,0,0,.33.64,3,3,0,0,0,2.23.81c1.16,0,1.83-.45,1.83-1.14s-.52-1-1.95-1.4c-1.8-.5-2.94-1.26-2.94-2.47s1.07-2.11,3-2.11a4,4,0,0,1,3.18,1.24l-.8,1-.12.14-.08-.09a.9.9,0,0,0-.35-.58,2.94,2.94,0,0,0-1.8-.61c-.88,0-1.6.31-1.6.92s.46.91,2.16,1.38c2,.57,2.73,1.25,2.73,2.4,0,1.35-1.09,2.49-3.29,2.49A4.9,4.9,0,0,1,280.24,13.55Z" fill="#231f20"></path>
    <path d="M296.85,6.67h1.28l1.16,6.07,1.28-5.28h.84L303,12.72A41.79,41.79,0,0,0,303.63,7V6.67H305c-.3,2.64-.76,5.37-1.28,8h-1.35L301,9.76l-1.26,4.88H298.4Z" fill="#231f20"></path>
    <path d="M306.89,13.44h2V7.86H307V6.67h3.39v6.77h1.84v1.18h-5.33Zm1.68-9.3a1,1,0,0,1,1-1,1,1,0,0,1,1,1,1,1,0,0,1-1,1A1,1,0,0,1,308.57,4.14Z" fill="#231f20"></path>
    <path d="M315.17,13.44h2.3V4.27h-2.2V3.09H319V13.44h2.3v1.18h-6.1Z" fill="#231f20"></path>
    <path d="M323.81,13.44h2.3V4.27h-2.19V3.09h3.7V13.44h2.29v1.18h-6.1Z" fill="#231f20"></path>
    <path d="M342.2,13.64l-.39,1h-1V3.09h1.65v.14c-.13.14-.15.26-.15.64v3.9a2.77,2.77,0,0,1,2.26-1.29c1.94,0,3.25,1.36,3.25,4.08s-1.62,4.25-3.32,4.25A2.8,2.8,0,0,1,342.2,13.64Zm4.1-3c0-2-.8-3-2-3s-2,1.17-2,3,.55,2.93,2,2.93C345.31,13.57,346.3,12.82,346.3,10.66Z" fill="#231f20"></path>
    <path d="M349.25,10.68c0-2.68,1.65-4.2,3.69-4.2,1.81,0,3.28,1.23,3.28,3.8,0,.21,0,.47,0,.66h-5.52a2.48,2.48,0,0,0,2.54,2.68,2.61,2.61,0,0,0,2-.83l.8.76a3.49,3.49,0,0,1-2.84,1.24C350.84,14.79,349.25,13.32,349.25,10.68Zm5.5-.87c0-1.36-.74-2.19-1.9-2.19s-1.94.67-2.13,2.19Z" fill="#231f20"></path>
  </g>
  <g>
    <path d="M4,74.1C4,64.32,9.6,60,15.41,60a8,8,0,0,1,7.47,4.21V48.44h5.39v.47c-.48.48-.53.89-.53,2.19l.05,32.84a9.46,9.46,0,0,0,.6,4h-5a8.56,8.56,0,0,1-.59-3.8,8.69,8.69,0,0,1-7.59,4.39C9.54,88.56,4,83.88,4,74.1Zm18.67.12c0-6-2.13-10.14-6.88-10.14C11.32,64.08,9,67.82,9,73.62c0,6.52,2.67,10.67,7.11,10.67C20.74,84.29,22.64,80.14,22.64,74.22Z" fill="#231f20"></path>
    <path d="M33.9,74.46c0-9.19,5.63-14.41,12.62-14.41,6.22,0,11.26,4.21,11.26,13,0,.71-.06,1.6-.12,2.25H38.76c.29,6.4,4.2,9.19,8.71,9.19a9,9,0,0,0,6.81-2.84L57,84.29a12,12,0,0,1-9.72,4.27C39.35,88.56,33.9,83.52,33.9,74.46Zm18.84-3c0-4.68-2.55-7.53-6.52-7.53-3.55,0-6.63,2.32-7.29,7.53Z" fill="#231f20"></path>
    <path d="M63.94,84.29l2.55-4.5.36-.53.35.23a4.09,4.09,0,0,0,1.13,2.2A10.33,10.33,0,0,0,76,84.47c4,0,6.29-1.54,6.29-3.91,0-2.13-1.78-3.26-6.7-4.8C69.39,74,65.48,71.43,65.48,67.28s3.68-7.23,10.26-7.23c4.92,0,8.17,1.43,10.9,4.27l-2.73,3.5-.41.47L83.2,68A3,3,0,0,0,82,66a10.19,10.19,0,0,0-6.17-2.07c-3,0-5.51,1.06-5.51,3.14,0,1.77,1.6,3.14,7.41,4.74,6.7,1.95,9.37,4.27,9.37,8.24,0,4.62-3.74,8.53-11.27,8.53A16.87,16.87,0,0,1,63.94,84.29Z" fill="#231f20"></path>
    <path d="M96.06,83.94h6.88V64.79H96.42V60.71H108V83.94h6.29v4H96.06Zm5.75-31.89a3.31,3.31,0,0,1,3.38-3.38,3.38,3.38,0,1,1,0,6.76A3.38,3.38,0,0,1,101.81,52.05Z" fill="#231f20"></path>
    <path d="M129.43,78a3.4,3.4,0,0,0-1.13,2.31c0,1.72,2.13,2.49,8.65,2.49,7.88,0,9.78,3.08,9.78,7,0,4.33-3.44,8.48-12.21,8.48-7.64,0-12.38-2.49-12.38-7a6.59,6.59,0,0,1,4.14-6,4.16,4.16,0,0,1-2.13-3.73c0-1.9,1.13-3.62,2.73-5.1a9.6,9.6,0,0,1,6.64-16.65,9.84,9.84,0,0,1,6.87,2.6A10.08,10.08,0,0,1,147.8,60l.59,3.92a9.17,9.17,0,0,0-6.1,1,9.69,9.69,0,0,1,.94,4.33c0,5.33-3.85,9.48-9.71,9.48A10.28,10.28,0,0,1,129.43,78Zm5.33,16.48c5.1,0,7.53-1.6,7.53-4s-1.07-3.38-6.52-3.38a26.26,26.26,0,0,1-6.88-.71c-1.6,1.12-2.43,2.19-2.43,4.21C126.46,93.06,129.66,94.43,134.76,94.43ZM139,69.24a5.49,5.49,0,1,0-5.51,5.51A5.41,5.41,0,0,0,139,69.24Z" fill="#231f20"></path>
    <path d="M153.6,60.71h5v4.5a10.48,10.48,0,0,1,8.77-5.16c4.51,0,8.24,3.2,8.24,11.44V88h-5V71.61c0-5.33-1.95-7.35-4.68-7.35a7.72,7.72,0,0,0-7.35,7.82V88h-5Z" fill="#231f20"></path>
    <path d="M182.05,74.46c0-9.19,5.63-14.41,12.62-14.41,6.23,0,11.26,4.21,11.26,13,0,.71-.06,1.6-.12,2.25h-18.9c.3,6.4,4.21,9.19,8.71,9.19a9,9,0,0,0,6.82-2.84l2.72,2.6a12,12,0,0,1-9.72,4.27C187.5,88.56,182.05,83.52,182.05,74.46Zm18.85-3c0-4.68-2.55-7.53-6.52-7.53-3.56,0-6.64,2.32-7.29,7.53Z" fill="#231f20"></path>
    <path d="M211.38,74.1C211.38,64.32,217,60,222.82,60a8,8,0,0,1,7.47,4.21V48.44h5.39v.47c-.47.48-.53.89-.53,2.19l.06,32.84a9.6,9.6,0,0,0,.59,4h-5a8.56,8.56,0,0,1-.59-3.8,8.69,8.69,0,0,1-7.59,4.39C217,88.56,211.38,83.88,211.38,74.1Zm18.67.12c0-6-2.13-10.14-6.87-10.14-4.45,0-6.82,3.74-6.82,9.54,0,6.52,2.67,10.67,7.11,10.67C228.16,84.29,230.05,80.14,230.05,74.22Z" fill="#231f20"></path>
    <path d="M243.35,91.88a5.31,5.31,0,0,0,1.84-3c0-.83-1.45-1.28-1.45-2.43a1.84,1.84,0,0,1,1.93-1.87,2.39,2.39,0,0,1,2.16,2.64c0,1.66-1.07,3.55-3.2,5.78Z" fill="#231f20"></path>
    <path d="M3.5,109.89H6v2.25a5.2,5.2,0,0,1,4.38-2.57c2.25,0,4.12,1.6,4.12,5.72v8.23H12v-8.18c0-2.66-1-3.67-2.34-3.67A3.86,3.86,0,0,0,6,115.58v7.94H3.5Z" fill="#231f20"></path>
    <path d="M17.39,116.71c0-4.12,2.67-7.11,6.37-7.11s6.37,3,6.37,7.11-2.69,7.08-6.37,7.08S17.39,120.89,17.39,116.71Zm10.11,0c0-3-1.54-5-3.74-5s-3.73,2-3.73,5,1.54,5,3.73,5S27.5,119.64,27.5,116.68Z" fill="#231f20"></path>
    <path d="M35.82,116.23l.15-4.29H33.13v-2h2.93l.12-3.38,2.64-.32.29,0,0,.21a1.71,1.71,0,0,0-.41,1.12l-.18,2.4h4.62v2H38.55l-.21,4.38c-.18,4.3.54,5.37,2.16,5.37a5.46,5.46,0,0,0,3.26-1.34l.66,1.93A7.13,7.13,0,0,1,40,123.76C36.65,123.76,35.65,121.6,35.82,116.23Z" fill="#231f20"></path>
    <path d="M62,116.59c0-4.89,2.81-7,5.71-7a4,4,0,0,1,3.74,2.1v-7.88h2.69V104c-.23.23-.26.44-.26,1.09l0,16.42a4.84,4.84,0,0,0,.29,2H71.73a4.3,4.3,0,0,1-.29-1.89,4.34,4.34,0,0,1-3.79,2.19C64.8,123.82,62,121.48,62,116.59Zm9.33.06c0-3-1.07-5.07-3.44-5.07-2.22,0-3.41,1.87-3.41,4.77,0,3.26,1.34,5.34,3.56,5.34S71.35,119.61,71.35,116.65Z" fill="#231f20"></path>
    <path d="M78.43,121.51h3.44v-9.57H78.61v-2h5.81v11.62h3.14v2H78.43Zm2.87-15.94A1.66,1.66,0,0,1,83,103.88a1.69,1.69,0,1,1,0,3.38A1.7,1.7,0,0,1,81.3,105.57Z" fill="#231f20"></path>
    <path d="M92,121.69l1.27-2.26.18-.26.18.12a2,2,0,0,0,.56,1.09A5.16,5.16,0,0,0,98,121.77c2,0,3.14-.77,3.14-2s-.89-1.63-3.35-2.4c-3.08-.86-5-2.16-5-4.24s1.84-3.61,5.13-3.61a6.92,6.92,0,0,1,5.45,2.13L102,113.45l-.21.24-.15-.15a1.53,1.53,0,0,0-.59-1,5.11,5.11,0,0,0-3.08-1c-1.51,0-2.76.54-2.76,1.57s.8,1.57,3.71,2.37c3.34,1,4.68,2.14,4.68,4.12,0,2.31-1.87,4.27-5.63,4.27A8.47,8.47,0,0,1,92,121.69Z" fill="#231f20"></path>
    <path d="M106.73,116.77a6.81,6.81,0,0,1,6.87-7.14,6.17,6.17,0,0,1,5.28,2.54l-1.52,1.57-.17.21-.18-.18c0-.32-.09-.53-.53-1a4.18,4.18,0,0,0-3-1c-2.16,0-4.12,1.87-4.12,4.92s1.93,5,4.42,5a4.43,4.43,0,0,0,3.5-1.66l1.45,1.66a6.67,6.67,0,0,1-5.07,2.19A6.79,6.79,0,0,1,106.73,116.77Z" fill="#231f20"></path>
    <path d="M121.1,116.71c0-4.12,2.66-7.11,6.37-7.11s6.37,3,6.37,7.11-2.7,7.08-6.37,7.08S121.1,120.89,121.1,116.71Zm10.1,0c0-3-1.54-5-3.73-5s-3.74,2-3.74,5,1.55,5,3.74,5S131.2,119.64,131.2,116.68Z" fill="#231f20"></path>
    <path d="M135.94,109.89h2.61l3.88,10.17,2-4.63a21.34,21.34,0,0,0,1.63-5.54h2.4a29,29,0,0,1-1.9,5.87l-3.32,7.76h-2Z" fill="#231f20"></path>
    <path d="M151.05,116.77c0-4.6,2.82-7.2,6.31-7.2,3.12,0,5.64,2.1,5.64,6.52,0,.35,0,.8-.06,1.12h-9.46c.15,3.2,2.11,4.59,4.36,4.59a4.48,4.48,0,0,0,3.41-1.42l1.36,1.31a6,6,0,0,1-4.86,2.13C153.78,123.82,151.05,121.3,151.05,116.77Zm9.43-1.48c0-2.35-1.28-3.77-3.26-3.77-1.78,0-3.32,1.16-3.65,3.77Z" fill="#231f20"></path>
    <path d="M170.37,109.89l0,2.43a4.51,4.51,0,0,1,4.18-2.75,4.88,4.88,0,0,1,3.65,1.51l-1.1,2-.12.27-.21-.12a1.86,1.86,0,0,0-.68-1,2.92,2.92,0,0,0-1.81-.56c-1.95,0-3.94,1.36-3.94,4.59v7.23h-2.58V109.89Z" fill="#231f20"></path>
    <path d="M180.68,116.77c0-4.6,2.82-7.2,6.31-7.2,3.12,0,5.63,2.1,5.63,6.52,0,.35,0,.8-.05,1.12h-9.46c.15,3.2,2.11,4.59,4.36,4.59a4.48,4.48,0,0,0,3.41-1.42l1.36,1.31a6,6,0,0,1-4.86,2.13C183.41,123.82,180.68,121.3,180.68,116.77Zm9.43-1.48c0-2.35-1.28-3.77-3.26-3.77-1.78,0-3.32,1.16-3.65,3.77Z" fill="#231f20"></path>
    <path d="M195.35,116.59c0-4.89,2.82-7,5.72-7a4,4,0,0,1,3.73,2.1v-7.88h2.7V104c-.24.23-.27.44-.27,1.09l0,16.42a4.69,4.69,0,0,0,.3,2h-2.49a4.17,4.17,0,0,1-.3-1.89,4.34,4.34,0,0,1-3.79,2.19C198.14,123.82,195.35,121.48,195.35,116.59Zm9.33.06c0-3-1.06-5.07-3.43-5.07s-3.41,1.87-3.41,4.77c0,3.26,1.33,5.34,3.55,5.34S204.68,119.61,204.68,116.65Z" fill="#231f20"></path>
    <path d="M214.11,122a1.9,1.9,0,0,1,1.89-1.86,1.87,1.87,0,1,1-1.89,1.86Z" fill="#231f20"></path>
  </g>
</svg>